<svg xmlns="http://www.w3.org/2000/svg" viewBox="0 0 100 6.3"><defs><style>.cls-1{fill:#ec6c4d;}</style></defs><title>footer_texture</title><g id="footer_txture"><path class="cls-1" d="M70.32,1.39l-.17-.12A6.78,6.78,0,0,0,68.08.86"/></g><g id="footer_texture"><path class="cls-1" d="M68.08.86A6.67,6.67,0,0,0,66,.45a4.8,4.8,0,0,0-1.61.67,2.38,2.38,0,0,0-.3-.16c-.57-.23-1.28.1-1.91.06a5.43,5.43,0,0,0-1.78.09,5.6,5.6,0,0,0-1.61.66,4.52,4.52,0,0,0-.8-.23,5.71,5.71,0,0,0-1.72-.22,1.21,1.21,0,0,0-.47.18c-.2-.1-.4-.2-.6-.32a7,7,0,0,0-1.93-1A7,7,0,0,0,51.08,0a7.42,7.42,0,0,0-2.22.36,2.87,2.87,0,0,0-1,1.07l-.19,0a6,6,0,0,0-1.84,0,2.26,2.26,0,0,0-.39.16A4.48,4.48,0,0,0,44,1c-.63-.11-1.27.36-1.92.45A8.22,8.22,0,0,0,41,1.66a2.31,2.31,0,0,0-.21-.15A6.45,6.45,0,0,0,38.87.78,6.83,6.83,0,0,0,36.81.51c-.67.08-1.17.76-1.79,1.05a7.64,7.64,0,0,0-1.24.68l-.06,0-.59-.13a4.41,4.41,0,0,0-.62-.54A6.45,6.45,0,0,0,30.65.6,7,7,0,0,0,28.58,0a7,7,0,0,0-2.07.6,6.75,6.75,0,0,0-2,.84,2.13,2.13,0,0,0-.39.39,2.66,2.66,0,0,0-1.25-.42,6.17,6.17,0,0,0-1.82.48,1.27,1.27,0,0,0-.44.33l-.2,0A5.34,5.34,0,0,0,18.67,2c-.62,0-1.32-.41-1.94-.19a1.67,1.67,0,0,0-.45.25,2.35,2.35,0,0,1-.46-.12A5.54,5.54,0,0,0,14,1.45c-.64,0-1.32-.56-2-.4a2.92,2.92,0,0,0-1.12.7A5.36,5.36,0,0,0,9.51,1.2,6,6,0,0,0,7.72.93a2.93,2.93,0,0,0-1.22.69,11.82,11.82,0,0,0-1.71-.43C4.11,1,3.48.4,2.81.43A7,7,0,0,0,.73.93,1.94,1.94,0,0,0,0,1.58V6.3H100V1.58a2.13,2.13,0,0,0-.25-.15c-.58-.38-1.42-.18-2.1-.37a6.05,6.05,0,0,0-2-.31,6.2,6.2,0,0,0-2,.37c-.39.15-.81.25-1.19.39A2.38,2.38,0,0,0,91.3,1a6.28,6.28,0,0,0-1.83.67l-.86.28a5.69,5.69,0,0,0-1.37-.52c-.68-.16-1.34-.84-2.08-.78a3.38,3.38,0,0,0-1.4.59A6,6,0,0,0,82.69.72,7.41,7.41,0,0,0,80.53.1c-.73,0-1.37.63-2.09.85a6.41,6.41,0,0,0-1.94.83c-.11.08-.2.16-.3.24l-.29,0A5.67,5.67,0,0,0,74.19,2l-.11.06a2,2,0,0,0-.59-.41,5.94,5.94,0,0,0-1.81-.19,12.37,12.37,0,0,0-1.34-.1"/></g></svg>