<svg xmlns="http://www.w3.org/2000/svg" viewBox="0 0 72.61 73.84"><defs><style>.cls-1{fill:#eb6c4d;}</style></defs><title>icon_circle</title><g id="icon_smile"><path class="cls-1" d="M72.58,41.38a2.18,2.18,0,0,0-.28-.62l-.11-.16s0,0,0,0a2.17,2.17,0,0,0,0-.72c-.06-.24.05-.56-.08-.79s-.42-.33-.61-.49a5,5,0,0,0-.4-.32c0-.05,0-.11,0-.16a2.17,2.17,0,0,0,.1-.68.78.78,0,0,0-.07-.19l.05-.22a2.15,2.15,0,0,0,.13-.67,2.22,2.22,0,0,0-.24-.64c-.08-.22,0-.51-.19-.68a1.76,1.76,0,0,0-.23-.23l.15-.12a2.44,2.44,0,0,0,.49-.56c.11-.21,0-.48,0-.72a1.74,1.74,0,0,0,.44-.38c.15-.2.09-.51.17-.75a2.18,2.18,0,0,0,.15-.7,2.24,2.24,0,0,0-.1-.72,2.41,2.41,0,0,0-.24-.71,2.41,2.41,0,0,0-.58-.47l-.32-.24.1-.11c.16-.2.48-.31.58-.56a2.59,2.59,0,0,0,0-.8,2.47,2.47,0,0,0,0-.77,2.48,2.48,0,0,0-.42-.65c-.11-.17-.19-.35-.32-.51v0a1.92,1.92,0,0,0-.19-.55,1.87,1.87,0,0,0-.23-.53c0-.05-.1-.09-.15-.14s0-.07,0-.11c0-.22.16-.45.11-.65a2.17,2.17,0,0,0-.27-.6c-.11-.18-.38-.23-.54-.37a2,2,0,0,0-.37-.25,1.79,1.79,0,0,0,0-.21c-.05-.22,0-.52-.08-.72s-.39-.3-.56-.45a1.28,1.28,0,0,0-1.26-.46,5,5,0,0,0-.57-.06,4.43,4.43,0,0,0-.18-.51l-.08-.23a1.72,1.72,0,0,0,.18-.45,1.92,1.92,0,0,0,.11-.58,1.92,1.92,0,0,0-.22-.55,1.85,1.85,0,0,0-.28-.52.66.66,0,0,0-.18-.13c0-.17-.14-.35-.16-.52a1.88,1.88,0,0,0-.18-.6c-.1-.2-.06-.48-.22-.65a.8.8,0,0,0-.31-.18h0a2.24,2.24,0,0,0-.12-.7,2.31,2.31,0,0,0-.5-.5,1.79,1.79,0,0,0-1.21-.68L62.8,14l-.06,0a1.41,1.41,0,0,0,.1-.46c0-.21-.2-.39-.27-.6a1.88,1.88,0,0,0-.26-.56,1.92,1.92,0,0,0-.44-.44,2.08,2.08,0,0,0-.53-.36h-.06a.71.71,0,0,0,0-.08,2,2,0,0,0-.43-.47,2.15,2.15,0,0,0-.54-.37.52.52,0,0,0-.25,0,1.14,1.14,0,0,0-.16-.22c-.18-.18-.51-.16-.74-.28L58.82,10l-.09-.2c0-.11-.09-.22-.15-.33a1.28,1.28,0,0,0,0-.24,1.94,1.94,0,0,0-.21-.59A2.09,2.09,0,0,0,58,8.08a2.09,2.09,0,0,0-.58-.29,2,2,0,0,0-.61-.22,2.1,2.1,0,0,0-.63.13c-.17,0-.37,0-.54,0a1.85,1.85,0,0,0-.54-.15H55a.54.54,0,0,0-.14-.23,1.16,1.16,0,0,0-.48-.19,1.15,1.15,0,0,0-.1-.32c-.1-.2-.37-.28-.54-.45A2,2,0,0,0,53.28,6a2,2,0,0,0-.62-.22l-.22,0a.55.55,0,0,0-.12-.28c-.15-.16-.39-.19-.57-.29a2,2,0,0,0-.56-.26,2,2,0,0,0-.61.07A2,2,0,0,0,50,5a.78.78,0,0,0-.2.15L49.44,5c-.17-.11-.29-.33-.48-.38h0a.58.58,0,0,0-.16-.27,2.32,2.32,0,0,0-.68-.24,2.22,2.22,0,0,0-.67-.21,2.24,2.24,0,0,0-.67.17l-.39.07-.07,0a1,1,0,0,0-.09-.25c-.1-.18-.29-.28-.44-.42s-.25-.33-.44-.42a2,2,0,0,0-.6-.1l-.28,0-.34-.13c-.2-.09-.37-.3-.57-.32a2.16,2.16,0,0,0-.66.06c-.21,0-.34.28-.52.39L42.08,3a2.19,2.19,0,0,0-.42,0,1.55,1.55,0,0,0-.34-.34.46.46,0,0,0,0-.2,2.14,2.14,0,0,0-.23-.61c-.1-.19-.36-.25-.51-.4a1.8,1.8,0,0,0-.49-.35c-.19-.09-.33-.33-.55-.36a2.1,2.1,0,0,0-.64.13l-.24,0a1.08,1.08,0,0,0-.41-.2,2.11,2.11,0,0,0-.64.08h0a1,1,0,0,0-.17-.2,2.33,2.33,0,0,0-.62-.38A2.46,2.46,0,0,0,36.09,0c-.24,0-.46.2-.7.26a2.13,2.13,0,0,0-.65.26A2.19,2.19,0,0,0,34.2,1a2.36,2.36,0,0,0-.45.58,2,2,0,0,0-.07.67l-.12.07,0,0,0,0c-.13-.16-.18-.4-.35-.51a1.8,1.8,0,0,0-.45-.18,2,2,0,0,0-.37-.54,2.34,2.34,0,0,0-.66-.31A2.3,2.3,0,0,0,31,.45a2.38,2.38,0,0,0-.72.12,2.32,2.32,0,0,0-.7.18,2.83,2.83,0,0,0-.33.22l-.32.1a2.32,2.32,0,0,0-.69.25,2.4,2.4,0,0,0-.46.57c-.16.2-.45.32-.53.55a2.52,2.52,0,0,0-.13.76.42.42,0,0,0,0,.08,1.67,1.67,0,0,0-.22.12l-.16,0a2.14,2.14,0,0,0-.64-.21,2.2,2.2,0,0,0-.65.2l-.2.06c-.22-.09-.41-.33-.66-.34a1.86,1.86,0,0,0-.66.21,1,1,0,0,0-.28-.13c-.19,0-.4.08-.59.09a1.71,1.71,0,0,0-.55.1,1.75,1.75,0,0,0-.49.28,1.89,1.89,0,0,0-.44.38V4a1.23,1.23,0,0,1-.25.15,1.77,1.77,0,0,0-.52.28c-.16.13-.43.15-.55.33a2.07,2.07,0,0,0-.15.62A2,2,0,0,0,20,6a.9.9,0,0,0,.11.36l-.05,0-.2,0c-.21,0-.44-.17-.65-.11s-.36.26-.54.38a2,2,0,0,0-.5.39,1.59,1.59,0,0,0-.21.53,1.47,1.47,0,0,0-.58.18.77.77,0,0,0-.09.09.87.87,0,0,0-.42-.13,2.15,2.15,0,0,0-.63.19c-.19.09-.27.34-.43.48a1.8,1.8,0,0,0-.39.46c-.08.15-.26.26-.35.41a1.19,1.19,0,0,0-.37.15,2.48,2.48,0,0,0-.37.33l-.35.1a2.28,2.28,0,0,0-.68.2,2.38,2.38,0,0,0-.49.4h0c-.21,0-.43-.14-.63-.09a2.08,2.08,0,0,0-.57.28c-.17.11-.21.37-.33.53l-.17.07a1.9,1.9,0,0,0-.58.24,1.94,1.94,0,0,0-.47.42,2.1,2.1,0,0,0-.39.52A2.1,2.1,0,0,0,9.6,13a2,2,0,0,0,0,.65h0a2.49,2.49,0,0,0-.64.14c-.22.08-.33.35-.52.49A2,2,0,0,0,8,14.8c-.13.19-.41.31-.48.54a2.32,2.32,0,0,0,0,.72,2.21,2.21,0,0,0,.07.69.64.64,0,0,0,.07.11v0a1.92,1.92,0,0,0-.07.5,1.43,1.43,0,0,0-.35.3,2,2,0,0,0-.21.6L7,18.39l-.15.05a2,2,0,0,0-.54.38,2.21,2.21,0,0,0-.48.49,1.78,1.78,0,0,0-.14.59,2,2,0,0,0-.49.3,2.21,2.21,0,0,0-.47.48c-.11.19,0,.45-.07.67s0,.15,0,.22a1.64,1.64,0,0,1-.14.18,2.18,2.18,0,0,0-.44.53.61.61,0,0,0,0,.12l0,0c-.2.12-.49.14-.63.31a2,2,0,0,0-.28.46l-.1,0a2.18,2.18,0,0,0-.6.31,2.19,2.19,0,0,0-.35.58,2.12,2.12,0,0,0-.28.61s0,0,0,.05a1.92,1.92,0,0,0-.5.46,2.46,2.46,0,0,0-.21.73,2.38,2.38,0,0,0-.12.75,2.48,2.48,0,0,0,.28.7c.09.21.08.47.18.66a2,2,0,0,0-.45.46,2.14,2.14,0,0,0-.36.55,2.13,2.13,0,0,0,0,.66c0,.11,0,.23,0,.34a5,5,0,0,0-.12.61c-.05.25-.26.49-.24.74a2.56,2.56,0,0,0,.22.75c.08.19.29.29.46.42a.71.71,0,0,0-.16.11,2,2,0,0,0-.31.53,1.93,1.93,0,0,0-.24.56,2,2,0,0,0,.09.6c0,.21-.06.45,0,.63a2.09,2.09,0,0,0,.39.51A.7.7,0,0,0,1,35.7c0,.06,0,.11,0,.17a1.48,1.48,0,0,1,0,.37,1,1,0,0,0-.15.39H1a1.39,1.39,0,0,0-.4.34,2.24,2.24,0,0,0-.23.66,2.17,2.17,0,0,0-.15.67A2.25,2.25,0,0,0,.4,39a1.19,1.19,0,0,1,.05.26c0,.19.06.39.07.57s0,.21,0,.32a1,1,0,0,0-.13.15,2.26,2.26,0,0,0-.17.67c-.06.23-.25.45-.24.67a2.35,2.35,0,0,0,.18.69.44.44,0,0,0,.09.13,2.12,2.12,0,0,0-.06.6,2.37,2.37,0,0,0,.06.73,2.37,2.37,0,0,0,.44.59c.09.11.19.23.29.34a4.37,4.37,0,0,0,.21.58,2.31,2.31,0,0,0,.23.69,2.38,2.38,0,0,0,.59.44l.07.05h0s0,.09,0,.14a2.44,2.44,0,0,0,0,.75,1.54,1.54,0,0,0,.28.47,1,1,0,0,0-.05.22,2,2,0,0,0,.15.61,2,2,0,0,0,.15.61,2,2,0,0,0,.47.42h0a2,2,0,0,0-.14.22,2.37,2.37,0,0,0-.32.66,2.37,2.37,0,0,0,.08.73,2.3,2.3,0,0,0,.16.71c.11.22.33.34.51.52a1.2,1.2,0,0,1,.15.21,2.13,2.13,0,0,0-.2.66c0,.25.2.48.27.73a2.22,2.22,0,0,0,.26.68l0,0a1.89,1.89,0,0,0,0,.26,2.48,2.48,0,0,0,0,.75c.06.24.34.38.47.59a2.15,2.15,0,0,0,.45.54l.25.18a.39.39,0,0,0,0,.06,2.46,2.46,0,0,0,.34.67c.14.2.44.24.63.39a2.07,2.07,0,0,0,.6.34c.22.08.42.33.67.34l.18,0a1.56,1.56,0,0,0,.42.31c.22.09.48,0,.72,0a3,3,0,0,0,.43,0c.05.17.14.33.21.5s.1.32.16.48a1.66,1.66,0,0,0-.12.53,2.12,2.12,0,0,0,.2.62,2.09,2.09,0,0,0,.2.63,2.15,2.15,0,0,0,.52.4l.08.06a1.65,1.65,0,0,0,.3.4c.14.14.2.39.38.49a2,2,0,0,0,.61.07l.14,0a1.63,1.63,0,0,0-.13.62,2.42,2.42,0,0,0,.28.69,1.88,1.88,0,0,0,.9,1.14,2.52,2.52,0,0,0,.68.34c.24.05.5-.13.75-.15a2.18,2.18,0,0,0,.7-.15l.25-.13a.72.72,0,0,0,.17.07.87.87,0,0,0,.22,0,1,1,0,0,0,.06.17,1.06,1.06,0,0,0,.41.33,1.83,1.83,0,0,0,0,.54,2,2,0,0,0,.18.57c.1.17.34.21.5.34a1.71,1.71,0,0,0,.47.31,1.76,1.76,0,0,0,.55.14,1.89,1.89,0,0,0,.59,0,1.89,1.89,0,0,0,.51-.29l.27-.17h.18v0a2.62,2.62,0,0,0,.26.75c.14.22.46.27.67.43a2.32,2.32,0,0,0,.62.38,1.72,1.72,0,0,0,.35.45c.18.15.47.11.7.19a2.06,2.06,0,0,0,.66.17,2.11,2.11,0,0,0,.68-.06,2.28,2.28,0,0,0,.68-.2.88.88,0,0,0,.13-.12,1.78,1.78,0,0,1,.19.16,2.37,2.37,0,0,0,.56.49h.06a1.93,1.93,0,0,0,.23.57,2,2,0,0,0,.51.33,1.55,1.55,0,0,0,1.15.35h.14a1.63,1.63,0,0,0,.36.32c.16.1.27.34.47.39a2,2,0,0,0,.61-.06,1.89,1.89,0,0,0,.59-.08,1.9,1.9,0,0,0,.45-.37l.23-.16a1.07,1.07,0,0,0,.29.21L30,72a1.89,1.89,0,0,0,.31.43c.16.16.22.46.43.57a2.3,2.3,0,0,0,.71.1l.41.06.34.21a2.27,2.27,0,0,0,.59.41,2.34,2.34,0,0,0,.72,0,2.29,2.29,0,0,0,.71-.06,2.62,2.62,0,0,0,.44-.2.48.48,0,0,0,.18,0,2.53,2.53,0,0,0,.74-.25,2.41,2.41,0,0,0,.71-.27,2.43,2.43,0,0,0,.46-.6,2.39,2.39,0,0,0,.46-.6.79.79,0,0,0,0-.15s0,0,0,0a1.91,1.91,0,0,0,.38.45c.13.15.18.4.35.5a2,2,0,0,0,.57.22c.19,0,.39-.1.59-.11a1.77,1.77,0,0,0,.43-.09,1,1,0,0,0,.17.1,2.21,2.21,0,0,0,.67,0c.24,0,.48.16.69.1l.14-.06a1.2,1.2,0,0,0,.34.14,2.08,2.08,0,0,0,.63-.07c.22,0,.47.08.66,0l.14-.08.33.06a1.76,1.76,0,0,0,1.36,0,2.36,2.36,0,0,0,.65-.31c.18-.15.19-.44.32-.64a3.24,3.24,0,0,0,.19-.34,1.85,1.85,0,0,0,.32.15,2.22,2.22,0,0,0,.65.21,2.22,2.22,0,0,0,.67-.17,2.15,2.15,0,0,0,.64-.25,2.23,2.23,0,0,0,.41-.54,2.12,2.12,0,0,1,.29-.28,2.21,2.21,0,0,0,.58.1,2.51,2.51,0,0,0,.78,0,2.51,2.51,0,0,0,.66-.42l.13-.09a1.67,1.67,0,0,0,.54-.07A1.79,1.79,0,0,0,52,70a1.1,1.1,0,0,0,.68-.93l0-.11.05,0c.21-.09.48-.06.64-.2a2.22,2.22,0,0,0,.42-.53,1,1,0,0,0,.06-.49c.23-.1.38-.34.57-.49l0,0a.76.76,0,0,0,.28,0,.87.87,0,0,0,.26-.12l.25.08c.24.05.47.28.73.25s.47-.23.69-.33a1.36,1.36,0,0,0,1-1,2.3,2.3,0,0,1,.15-.21,1.08,1.08,0,0,0,.38-.15,2.06,2.06,0,0,0,.41-.49,2,2,0,0,0,.34-.53.63.63,0,0,0,0-.15,2.19,2.19,0,0,0,.43-.39c.14-.16.1-.41.18-.6a1.75,1.75,0,0,0,.15-.56,1,1,0,0,1,.07-.24h.25a1.4,1.4,0,0,0,1.39-.48,2.4,2.4,0,0,0,.57-.51.85.85,0,0,0,.1-.26l.18-.08c.2-.07.45,0,.61-.16a2.08,2.08,0,0,0,.41-.48c.11-.17,0-.42.1-.62,0,0,0,0,0,0a1.27,1.27,0,0,1,.24-.18,1.82,1.82,0,0,0,.5-.34c.15-.15.43-.2.53-.4a1.3,1.3,0,0,0,.08-.53,1.62,1.62,0,0,0,.29-.21,2.31,2.31,0,0,0,.48-.58,2.5,2.5,0,0,0,.37-.68,2.5,2.5,0,0,0,0-.77c0-.15,0-.3-.06-.45l.06,0L66,56a1.9,1.9,0,0,0,.58-.11,1.84,1.84,0,0,0,.56-.18,1.91,1.91,0,0,0,.38-.44c.13-.16.36-.25.43-.43a2,2,0,0,0,.12-.6c0-.2-.16-.37-.21-.57a1.68,1.68,0,0,0-.21-.52c-.1-.16-.1-.41-.25-.54a1.5,1.5,0,0,0,0-.16c0-.19.15-.41.09-.61a.48.48,0,0,0,0-.07v0h.05a2.15,2.15,0,0,0,.65-.25,1.32,1.32,0,0,0,.93-1,2.25,2.25,0,0,0,.23-.68,2.33,2.33,0,0,0-.15-.7c0-.21,0-.46-.06-.66h0a1.54,1.54,0,0,0,.46-.19,2.11,2.11,0,0,0,.4-.52,2.07,2.07,0,0,0,.4-.52,1.74,1.74,0,0,0,0-.59,1.12,1.12,0,0,1,.12-.24,1.77,1.77,0,0,0,.29-.51c.07-.19.28-.36.29-.58a2.07,2.07,0,0,0-.2-.61,3.12,3.12,0,0,0-.16-.45,3.06,3.06,0,0,1,.33-.14,1.24,1.24,0,0,0,1-.78c.14-.18.34-.32.42-.53a2.21,2.21,0,0,0,0-.68A2.16,2.16,0,0,0,72.58,41.38Z"/></g></svg>