<svg xmlns="http://www.w3.org/2000/svg" viewBox="0 0 61.8 49.85"><defs><style>.cls-1{fill:#eb6c4d;}</style></defs><title>icon_letter</title><g id="icon_letter"><path class="cls-1" d="M61.64,36.49a2.93,2.93,0,0,0-.19-.9,1.12,1.12,0,0,0-.27-.34,1.8,1.8,0,0,0,.07-.46,2.44,2.44,0,0,0-.11-.78v0a1,1,0,0,0,.07-.11,2.56,2.56,0,0,0,.22-.77,2.71,2.71,0,0,0,0-.82c-.06-.26-.34-.43-.48-.67l-.08-.13a1.39,1.39,0,0,0,.19-.4c.06-.24-.11-.5-.13-.76,0,0,0-.1,0-.14l.1-.09a3,3,0,0,0,.58-.72c.12-.27,0-.62,0-.93a2.64,2.64,0,0,0,0-.87,2.7,2.7,0,0,0-.3-.82c-.05-.09-.1-.19-.14-.28a4.1,4.1,0,0,0-.06-.69A2.4,2.4,0,0,0,61,25a1,1,0,0,0-.22-.33h0a2.3,2.3,0,0,0,.25-.68,2.37,2.37,0,0,0-.19-.7l0-.1a.66.66,0,0,0,.21-.25,2.51,2.51,0,0,0,.15-.75c0-.25-.2-.47-.26-.71a2.21,2.21,0,0,0-.21-.54,3.29,3.29,0,0,0,.11-.59,2.49,2.49,0,0,0,.05-.65,1.25,1.25,0,0,0,.14-.13,2.82,2.82,0,0,0,.28-.83,2.77,2.77,0,0,0,.28-.83,2.86,2.86,0,0,0-.24-.84c0-.12-.07-.24-.1-.36s0-.19.06-.28a2.53,2.53,0,0,0,.15-.78,2.55,2.55,0,0,0-.16-.78l0-.05a1.27,1.27,0,0,0,.21-.5,2.68,2.68,0,0,0-.14-.81c0-.19-.07-.38-.12-.55a1,1,0,0,0,.12-.19,2.62,2.62,0,0,0,.22-.8,2.78,2.78,0,0,0,0-.84,1.08,1.08,0,0,0-.32-.46,1.81,1.81,0,0,0,.17-.57,2.81,2.81,0,0,0-.19-.84c-.07-.29,0-.64-.12-.89a2.24,2.24,0,0,0-.25-.33s0,0,0-.08a2.39,2.39,0,0,0,.23-.7A2.39,2.39,0,0,0,61,6.55a2.32,2.32,0,0,0-.26-.69,2.4,2.4,0,0,0-.58-.46l0,0s0,0,0-.07c0-.26.2-.55.12-.81s-.34-.44-.48-.66a2.51,2.51,0,0,0-.5-.61A1,1,0,0,0,58.89,3c-.06-.27,0-.58-.17-.79a2.94,2.94,0,0,0-.65-.62c-.24-.17-.59-.09-.87-.18a2.71,2.71,0,0,0-.54-.12l0,0a2.82,2.82,0,0,0-.77-.39c-.27-.14-.48-.44-.76-.48a3,3,0,0,0-.9,0c-.28,0-.48.34-.73.48a1.16,1.16,0,0,0-.19-.14,2.44,2.44,0,0,0-.75-.12,2.4,2.4,0,0,0-.75-.12,2.47,2.47,0,0,0-.69.33l0,0a1.59,1.59,0,0,0-.57-.27,2.47,2.47,0,0,0-.75.11l-.49.09a1.12,1.12,0,0,0-.16-.1,2.48,2.48,0,0,0-.77-.08,2.44,2.44,0,0,0-.77-.08.84.84,0,0,0-.17.08.8.8,0,0,0-.33-.31,2.92,2.92,0,0,0-.9,0,2.79,2.79,0,0,0-.87,0A1,1,0,0,0,45,.47h0C44.65.34,44.41,0,44.12,0a3.05,3.05,0,0,0-.93.08c-.3.07-.48.4-.74.55h0a2,2,0,0,0-.37-.07,2.49,2.49,0,0,0-.76,0A.82.82,0,0,0,41,.82a1.5,1.5,0,0,0-.44-.19,2.45,2.45,0,0,0-.74.08,1.41,1.41,0,0,1-.31,0l-.2-.14a2.87,2.87,0,0,0-.79-.38c-.28-.05-.57.15-.85.19a2.49,2.49,0,0,0-.8.19l-.3.16-.15,0a2.74,2.74,0,0,0-.65-.09C35.5.53,35.27.5,35,.43s-.56-.35-.85-.34a3,3,0,0,0-.9.19c-.28.1-.42.45-.66.63h0a1.81,1.81,0,0,0-.56-.07,2.09,2.09,0,0,0-.66.14L31.3,1,30.82.88c-.24-.07-.45-.28-.68-.27a1.82,1.82,0,0,0-.33,0A2.93,2.93,0,0,0,29,.34a2.74,2.74,0,0,0-.81-.27,2.76,2.76,0,0,0-.86.07,2.92,2.92,0,0,0-.84.27.64.64,0,0,0-.19.2,2.07,2.07,0,0,0-.65,0c-.24,0-.54-.07-.76.06l-.06.06a2.05,2.05,0,0,0-.5-.11,2.41,2.41,0,0,0-.73,0,.6.6,0,0,0-.25.15l-.16,0A2.53,2.53,0,0,0,22.47.5a2.54,2.54,0,0,0-.77.19A3,3,0,0,0,21,.86a4.2,4.2,0,0,0-.62-.12,2.32,2.32,0,0,0-.72-.15A2.39,2.39,0,0,0,19,.87l-.08,0A1.29,1.29,0,0,0,18.4.58a2.4,2.4,0,0,0-.73,0c-.23,0-.4.28-.61.39l0,0A3.11,3.11,0,0,0,16.4.82a2.27,2.27,0,0,0-.69-.21A2.34,2.34,0,0,0,15,.83l-.09,0L14.83.8c-.22-.12-.51,0-.76-.07a2.12,2.12,0,0,0-.7,0h-.12a1.43,1.43,0,0,0-.37-.29,2.72,2.72,0,0,0-.81-.27A2.88,2.88,0,0,0,11.19,0c-.28,0-.48.35-.73.48l-.35.2A.68.68,0,0,0,9.78.6a2.39,2.39,0,0,0-.72.11.49.49,0,0,0-.18.11A1.4,1.4,0,0,0,8.48.6C8.25.53,8,.68,7.74.69A2.12,2.12,0,0,0,7,.78L6.7.92h0A3,3,0,0,0,5.79.84c-.3,0-.53.3-.8.4a2.5,2.5,0,0,0-.73.4c-.23.18-.61.22-.78.47a1,1,0,0,0-.13.37c-.17.13-.29.34-.46.46a2.25,2.25,0,0,0-.54.52c-.15.21-.48.34-.56.6,0,0,0,0,0,0l-.12.05a2.73,2.73,0,0,0-.52.65c-.18.23-.5.37-.6.63a2.85,2.85,0,0,0-.14.86c0,.28.25.52.33.8l0,.11,0,0A2.69,2.69,0,0,0,.34,8a2.7,2.7,0,0,0-.1.84c0,.12,0,.24,0,.36-.15.26-.06.62-.13.92A2.66,2.66,0,0,0,0,11a2.73,2.73,0,0,0,.19.86,3.57,3.57,0,0,0,.34.78A2.06,2.06,0,0,0,.47,13a2.45,2.45,0,0,0,0,.76,1.46,1.46,0,0,0,.24.46,3,3,0,0,0,0,.73,2.45,2.45,0,0,0-.05.77.83.83,0,0,0,.08.17l0,0c-.14.25-.49.43-.55.73a2.94,2.94,0,0,0,.13.9,2.8,2.8,0,0,0,.17.86,1.19,1.19,0,0,0,.3.38.83.83,0,0,1,0,.15,2.14,2.14,0,0,0-.05.71c0,.24-.12.54,0,.78a1.49,1.49,0,0,0-.17.41,2.69,2.69,0,0,0,.06.82c0,.29-.12.6,0,.86a2.3,2.3,0,0,0,.26.45,2,2,0,0,0-.21.62,2.25,2.25,0,0,0,.05.7,2.38,2.38,0,0,0,.22.69l0,0a2.1,2.1,0,0,0-.19.66,2.18,2.18,0,0,0,0,.7c0,.1,0,.2.05.3A1.49,1.49,0,0,0,.5,27a2.62,2.62,0,0,0-.13.79c0,.28-.25.55-.2.81a2.74,2.74,0,0,0,.29.79.57.57,0,0,0,.16.18c-.1.26-.37.49-.37.77a1.11,1.11,0,0,0,.14.48l0,0a2.73,2.73,0,0,0-.36.77,2.73,2.73,0,0,0,.1.84,2.64,2.64,0,0,0,.2.82,1.09,1.09,0,0,0,.27.32,1.42,1.42,0,0,0-.07.18,2.27,2.27,0,0,0-.08.73c0,.19,0,.38,0,.57a1,1,0,0,0-.21.3,2.7,2.7,0,0,0-.08.83,2.64,2.64,0,0,0,0,.82,2.87,2.87,0,0,0,.24.62,1.38,1.38,0,0,0-.32.6,3.14,3.14,0,0,0,.09,1c.06.25.29.42.46.62a2.49,2.49,0,0,0-.2.57,3,3,0,0,0-.12.89c0,.29.33.51.45.78a2.7,2.7,0,0,0,.41.68s0,0,0,.07a2.72,2.72,0,0,0,.15.83,2.68,2.68,0,0,0,.14.84,2.76,2.76,0,0,0,.59.6l.14.14c0,.11,0,.21.08.31s.37.38.52.59a2.19,2.19,0,0,0,.5.53c.2.15.32.47.57.55a1,1,0,0,0,.45,0,1.5,1.5,0,0,0,.22.39,2.67,2.67,0,0,0,.68.46c.24.16.4.46.66.54a2.8,2.8,0,0,0,.85.07.56.56,0,0,0,.22-.06,2.56,2.56,0,0,0,.63.31c.23.08.49-.07.74-.07A2.06,2.06,0,0,0,9,48.76H9a.68.68,0,0,0,.23.23,2.79,2.79,0,0,0,.81.25c.27,0,.54-.17.81-.21l.28-.06a.71.71,0,0,0,.28.24,2.6,2.6,0,0,0,.78.15c.25,0,.47-.2.72-.27s.46,0,.67.11a2.46,2.46,0,0,0,.79.16,2.52,2.52,0,0,0,.81-.11A2.72,2.72,0,0,0,16,49l.07-.08.31,0a2.37,2.37,0,0,0,.75,0,.84.84,0,0,0,.18-.1l.2.1c.23.1.52,0,.77,0a2.13,2.13,0,0,0,.71,0,3.06,3.06,0,0,1,.51,0L20,49a2.39,2.39,0,0,0,.72.24,1.08,1.08,0,0,0,.38-.08l.05,0a3,3,0,0,0,.76.48c.28.09.6-.09.9-.1a2.57,2.57,0,0,0,.84-.1,2.83,2.83,0,0,0,.56-.26,1.19,1.19,0,0,0,.47.18,1.72,1.72,0,0,0,.64-.1h0a3,3,0,0,0,.86.33,2.32,2.32,0,0,0,1.79.15,4.33,4.33,0,0,0,.76-.27,2.08,2.08,0,0,0,.75.12,2.93,2.93,0,0,0,.84-.34l.2-.09a1.25,1.25,0,0,0,.32.17,2.72,2.72,0,0,0,.84.13,2.88,2.88,0,0,0,.87-.07,1.06,1.06,0,0,0,.42-.37,1,1,0,0,0,.22.11,2.44,2.44,0,0,0,.76.12,2.58,2.58,0,0,0,.78-.07,1.09,1.09,0,0,0,.41-.37,2.21,2.21,0,0,0,.5.19c.27.06.52.32.81.3a2.22,2.22,0,0,0,.73-.33,1.76,1.76,0,0,0,.6.37,2.78,2.78,0,0,0,.85,0,2.72,2.72,0,0,0,.84-.09l.35-.16h0a2.69,2.69,0,0,0,.78.24c.27,0,.5-.22.76-.3l.09,0a2.14,2.14,0,0,0,.33.19,2.72,2.72,0,0,0,.77.31c.27,0,.53-.18.8-.23a2.73,2.73,0,0,0,.62-.18,2.4,2.4,0,0,0,.66.25,2.63,2.63,0,0,0,.79.1,1.4,1.4,0,0,0,.56-.33h0a2.35,2.35,0,0,0,.72.23,2.54,2.54,0,0,0,.78.09,1.28,1.28,0,0,0,.39-.16,2.42,2.42,0,0,0,.41.15,2.89,2.89,0,0,0,.87.2,2.89,2.89,0,0,0,.85-.29,2.81,2.81,0,0,0,.8-.39.91.91,0,0,0,.15-.2h.24a2.22,2.22,0,0,0,.7,0l.1-.05a2.08,2.08,0,0,1,.43.13,2.34,2.34,0,0,0,.74.24c.27,0,.54.28.82.23s.5-.29.74-.41a2.73,2.73,0,0,0,.68-.42,2.26,2.26,0,0,0,.7-.16A2.45,2.45,0,0,0,56.8,48a1.33,1.33,0,0,0,.28-.36,3.52,3.52,0,0,0,.47-.09c.26-.07.41-.37.64-.52a2.3,2.3,0,0,0,.57-.5c.17-.21.5-.32.6-.58a.94.94,0,0,0,0-.4,1.15,1.15,0,0,0,.16-.09c.22-.18.25-.54.41-.79a2.53,2.53,0,0,0,.37-.75,2.59,2.59,0,0,0,.1-.83c0-.19,0-.37,0-.56a2,2,0,0,0,.24-.37,2.36,2.36,0,0,0,.24-.68.58.58,0,0,0-.06-.27,2.63,2.63,0,0,0,.51-.63,2.88,2.88,0,0,0,.42-.79,2.88,2.88,0,0,0-.06-.89,2.79,2.79,0,0,0-.17-.87.81.81,0,0,0-.08-.11,1.08,1.08,0,0,0,.34-.51A3.06,3.06,0,0,0,61.64,36.49ZM55.79,11.15c-.05.27,0,.59-.09.83a2.72,2.72,0,0,1-.57.6,2,2,0,0,1-1.47.57l-.18,0-.16.21a2.22,2.22,0,0,1-.41.43,3.24,3.24,0,0,1-.26.77,2.89,2.89,0,0,1-.39.81,2.89,2.89,0,0,1-.75.48,2.68,2.68,0,0,1-.81.32,2.2,2.2,0,0,1-.66,0,3.75,3.75,0,0,1-.46.27c-.21.11-.4.32-.65.37h0l-.25.32a2.28,2.28,0,0,1-.47.52l0,0a1.24,1.24,0,0,0-.09.23,2.88,2.88,0,0,1-.22.85,2.78,2.78,0,0,1-.63.61,2.86,2.86,0,0,1-.71.54,1.49,1.49,0,0,1-.56.08,2.37,2.37,0,0,1-.39.68,2.74,2.74,0,0,1-.74.41,2.53,2.53,0,0,1-.78.24,1.65,1.65,0,0,1-.28,0l-.12.11-.33.32a1.08,1.08,0,0,1,0,.55,2.69,2.69,0,0,1-.49.66,2,2,0,0,1-1.37.74l-.39.12a1.12,1.12,0,0,1-.22.4,2.68,2.68,0,0,1-.7.46,4.74,4.74,0,0,1-.66.41,1,1,0,0,1-.16.31,2.24,2.24,0,0,1-.6.38l-.4.27a.79.79,0,0,1,0,.19,2.66,2.66,0,0,1-.48.68c-.18.21-.28.53-.53.68s-.6,0-.86.11l-.18,0a1.35,1.35,0,0,1-.24.45,2.42,2.42,0,0,1-.66.38c-.17.1-.33.22-.5.31a.53.53,0,0,1,0,.23,2.48,2.48,0,0,1-.42.63c-.17.17-.47.16-.7.28a5.48,5.48,0,0,1-.52.27c-.12.15-.31.27-.42.43a2.5,2.5,0,0,1-.44.62,2.41,2.41,0,0,1-.7.3,2.48,2.48,0,0,1-.74.22,2.48,2.48,0,0,1-.74-.21,2.3,2.3,0,0,1-.67-.34,2,2,0,0,1-.44-.45l-.13,0a2.19,2.19,0,0,1-.7-.2c-.24-.11-.56-.07-.75-.24l-.23-.23a2.15,2.15,0,0,1-.79-.09,2.91,2.91,0,0,1-.73-.56,3,3,0,0,1-.67-.65,1.89,1.89,0,0,1-.19-.69A1.16,1.16,0,0,1,24.4,28,2.63,2.63,0,0,1,24,27.3a2.35,2.35,0,0,0-.18-.28h0a2.18,2.18,0,0,1-.66-.26,2.12,2.12,0,0,1-.53-.46c-.14-.16-.37-.26-.5-.42a.83.83,0,0,1-.45,0,2.81,2.81,0,0,1-.76-.39,1.2,1.2,0,0,1-.3-.52h-.11a2.82,2.82,0,0,1-.75-.41,2.66,2.66,0,0,1-.62-.56,1.38,1.38,0,0,1-.22-.39l-.06,0a3,3,0,0,1-.88-.27,2.91,2.91,0,0,1-.61-.69,3,3,0,0,1-.52-.77s0,0,0-.07a1.64,1.64,0,0,1-.58-.31,1.93,1.93,0,0,1-.35-.53h0a2.78,2.78,0,0,1-.75-.38,2.63,2.63,0,0,1-.63-.54,1.25,1.25,0,0,1-.2-.32l-.25,0a2.69,2.69,0,0,1-.82-.34c-.27-.15-.66-.16-.87-.38a2.66,2.66,0,0,1-.41-.75h-.07a2.61,2.61,0,0,1-.62-.51,2.42,2.42,0,0,1-.5-.61s0-.08-.05-.12a.89.89,0,0,1-.48-.06,3,3,0,0,1-.76-.53,1.21,1.21,0,0,1-.23-.57,1.38,1.38,0,0,1-.56-.12,2.94,2.94,0,0,1-.7-.6c-.21-.22-.55-.37-.69-.66a.76.76,0,0,1-.05-.4h0a2.23,2.23,0,0,1-.49-.49A2.29,2.29,0,0,1,6.2,13a2.22,2.22,0,0,1-.07-.7,2.25,2.25,0,0,1-.07-.7,2.24,2.24,0,0,1,.31-.63c.12-.2.16-.48.34-.64s.49-.12.7-.21a2,2,0,0,1,.65-.16c.24,0,.47-.2.71-.15a2.39,2.39,0,0,1,.69.24s0,0,.05.06h0a2.91,2.91,0,0,1,.92.08,3,3,0,0,1,.91.19A3,3,0,0,1,12,11a2.57,2.57,0,0,1,.36.47l.46.23a2.86,2.86,0,0,1,.71.54A2.84,2.84,0,0,1,14,13a4.29,4.29,0,0,1,.34.7l.16.14.1.07a1.23,1.23,0,0,1,.55-.06c.31.06.5.42.77.57a2.62,2.62,0,0,1,.68.55c.21.23.58.34.71.62,0,.08.07.16.1.25a.72.72,0,0,1,.37.07,2.81,2.81,0,0,1,.68.52.94.94,0,0,1,.17.46,3.48,3.48,0,0,1,.65.28,2.72,2.72,0,0,1,.73.41,1.44,1.44,0,0,1,.28.47l.16.05a3,3,0,0,1,.88.29,2.92,2.92,0,0,1,.55.74,3,3,0,0,1,.55.74h0l.12,0a2.84,2.84,0,0,1,.67.55.68.68,0,0,1,.13.3l.09,0a2.08,2.08,0,0,1,1.21,1.06,2.68,2.68,0,0,1,.45.69s0,0,0,0a.77.77,0,0,1,.3.08c.22.12.27.44.43.62a1.9,1.9,0,0,1,.2.26,1.71,1.71,0,0,1,.65-.09,2.6,2.6,0,0,1,.76.32,2.68,2.68,0,0,1,.72.41,1.22,1.22,0,0,1,.24.38,1.14,1.14,0,0,1,.34.07c.29.13.46.41.69.61s.53.34.69.61a1.72,1.72,0,0,1,.18.47,4.4,4.4,0,0,1,.46.38,2.82,2.82,0,0,1,.2-.27,2.31,2.31,0,0,1,.62-.36l.14-.08a2.22,2.22,0,0,0,.24-.37,2.5,2.5,0,0,1,.31-.7,2.42,2.42,0,0,1,.63-.43l.31-.19v0a2.71,2.71,0,0,1,.52-.66,2.51,2.51,0,0,1,.62-.53,2.45,2.45,0,0,1,.75-.29c.22-.06.42-.21.63-.27h0a1.54,1.54,0,0,1,.4-.32.79.79,0,0,1,0-.16,2.65,2.65,0,0,1,.3-.79,2.73,2.73,0,0,1,.4-.75,2.73,2.73,0,0,1,.73-.43,2.53,2.53,0,0,1,.78-.27,1.79,1.79,0,0,1,.4,0,.5.5,0,0,1,.08-.14,2.71,2.71,0,0,1,.61-.56.68.68,0,0,1,.32-.08,2,2,0,0,1,.17-.43c.12-.21.42-.29.61-.46a2.4,2.4,0,0,1,.54-.49,1.1,1.1,0,0,1,.22-.06,2.48,2.48,0,0,1,.37-.73,2.69,2.69,0,0,1,.72-.44c.17-.09.33-.23.51-.33a1.09,1.09,0,0,1,.12-.32c.16-.26.45-.37.68-.56a2.83,2.83,0,0,1,.68-.56,2.57,2.57,0,0,1,.82-.12l.11-.11a2.25,2.25,0,0,1,.44-.54,2.24,2.24,0,0,1,.66-.23l0,0,.07-.13a2.33,2.33,0,0,1,.35-.63,2.33,2.33,0,0,1,.63-.35h0l0-.06a2.86,2.86,0,0,1,.34-.82,2.84,2.84,0,0,1,.72-.52c.25-.15.47-.43.77-.5h0a1.53,1.53,0,0,1,.35-.54c.21-.17.54-.09.78-.18a2.09,2.09,0,0,1,.59-.12,2.85,2.85,0,0,1,.14-.29c.13-.24.13-.58.33-.76a2.74,2.74,0,0,1,.68-.48c.24-.11.56,0,.83,0a2.62,2.62,0,0,1,.8-.09,2.53,2.53,0,0,1,.73.34,2.61,2.61,0,0,1,.68.43,2.61,2.61,0,0,1,.35.73,2.42,2.42,0,0,1,.2.76A2.36,2.36,0,0,1,55.79,11.15Z"/></g></svg>