<svg xmlns="http://www.w3.org/2000/svg" viewBox="0 0 56.22 57.62"><defs><style>.cls-1{fill:#eb6c4d;}</style></defs><title>icon_arrowUp</title><g id="icon_arrowUp"><path class="cls-1" d="M56,27.34a1.69,1.69,0,0,0-.19-.53c-.1-.17-.08-.43-.24-.57a.92.92,0,0,0-.38-.17,1.45,1.45,0,0,0,0-.4,1.65,1.65,0,0,0-.06-.51,1.64,1.64,0,0,0-.32-.4,2.69,2.69,0,0,0-.26-.27,2,2,0,0,1,0-.2,1.76,1.76,0,0,0,0-.56,1.81,1.81,0,0,0-.31-.46,1.77,1.77,0,0,0-.34-.43,2,2,0,0,0-.35-.21,2.09,2.09,0,0,0-.4-.48c-.14-.16-.22-.37-.4-.49l-.05,0a2.48,2.48,0,0,1-.17-.27,2,2,0,0,0-.33-.55,2.05,2.05,0,0,0-.56-.3,2.24,2.24,0,0,0-.54-.29l-.06-.08a1.52,1.52,0,0,0-.89-.78l-.07,0a1.84,1.84,0,0,1-.18-.18,1.87,1.87,0,0,0-.39-.44.63.63,0,0,0-.19-.08.39.39,0,0,0,0-.17c-.07-.19-.27-.31-.39-.47a1.88,1.88,0,0,0-.4-.43,1.9,1.9,0,0,0-.57-.16h0a.92.92,0,0,0-.13-.33,1.66,1.66,0,0,0-.4-.32l-.05,0a1.77,1.77,0,0,0,0-.39,2.15,2.15,0,0,0-.18-.63c-.11-.18-.37-.24-.53-.39a2.17,2.17,0,0,0-.41-.3,1.35,1.35,0,0,0-.18-.41c-.13-.17-.39-.2-.56-.32A1.85,1.85,0,0,0,45,14l-.09,0,0-.09a1.91,1.91,0,0,0-.32-.49c-.14-.13-.38-.11-.55-.19a1.89,1.89,0,0,0-.44-.15.53.53,0,0,0-.07-.27,1.78,1.78,0,0,0-.38-.39.39.39,0,0,0-.17-.07A.67.67,0,0,0,43,12a2.09,2.09,0,0,0-.28-.57c-.11-.17-.37-.21-.53-.34a1.75,1.75,0,0,0-.5-.3l-.09-.05a.84.84,0,0,0-.13-.28,1.82,1.82,0,0,0-.45-.34L40.85,10a1.6,1.6,0,0,0-.1-.32,1.89,1.89,0,0,0-.25-.53A1.89,1.89,0,0,0,40,8.84a1.84,1.84,0,0,0-.53-.25h0a.81.81,0,0,0-.08-.16c-.11-.15-.34-.17-.49-.28L38.73,8a1.29,1.29,0,0,0-.06-.47,1.91,1.91,0,0,0-.37-.46,1.86,1.86,0,0,0-.42-.41.71.71,0,0,0-.25-.08,2,2,0,0,0-.35-.46,1.84,1.84,0,0,0-.41-.42,1.9,1.9,0,0,0-.56-.15l0,0a.58.58,0,0,0-.06-.32c-.1-.15-.31-.22-.44-.33a1.7,1.7,0,0,0-.44-.3h0l-.11-.16A1.75,1.75,0,0,0,34.85,4a1.81,1.81,0,0,0-.52-.2l-.15-.08a.53.53,0,0,0,0-.16,1.67,1.67,0,0,0-.35-.38,1.63,1.63,0,0,0-.37-.35l0,0a1.62,1.62,0,0,0-.11-.51c-.08-.16-.3-.23-.43-.36a1.59,1.59,0,0,0-.41-.33,1.63,1.63,0,0,0-.5-.18l-.1,0a1.68,1.68,0,0,0-.27-.37,1.91,1.91,0,0,0-.44-.38c-.17-.08-.39,0-.58,0l-.34,0v0a1.91,1.91,0,0,0-.51-.3,1.88,1.88,0,0,0-.51-.3,1.93,1.93,0,0,0-.59,0A2.35,2.35,0,0,0,28,.14h-.16a1.74,1.74,0,0,0-.54-.06,1.76,1.76,0,0,0-.49.24,1.73,1.73,0,0,0-.49.24.58.58,0,0,0-.07.1.79.79,0,0,0-.38-.12,1.87,1.87,0,0,0-.55.16c-.17.07-.24.29-.38.42a1.77,1.77,0,0,0-.22.23c-.12,0-.24.08-.36.1a1.9,1.9,0,0,0-.58.15c-.18.09-.27.28-.42.43s-.33.24-.42.43a.64.64,0,0,0,0,.13,1.62,1.62,0,0,0-.34.18c-.16.12-.43.13-.56.3a2,2,0,0,0-.18.6l-.08.23-.21.2a.89.89,0,0,0-.13.4l-.27.11c-.19.07-.44,0-.59.14a2,2,0,0,0-.41.45c-.11.16-.06.4-.12.59l0,.08,0,0a1.58,1.58,0,0,0-.45.22,1.5,1.5,0,0,0-.24.42l-.08,0a1.55,1.55,0,0,0-1.1.48,2.08,2.08,0,0,0-.42.47.9.9,0,0,0,0,.45l-.17.2c-.13.13-.35.19-.43.35a1.5,1.5,0,0,0-.11.33,2.05,2.05,0,0,0-.36.16c-.15.09-.2.3-.31.43a1.51,1.51,0,0,0-.25.37H16c-.18.05-.27.26-.43.36a1.61,1.61,0,0,0-.34.3,1,1,0,0,0-.23,0,2,2,0,0,0-.53.33,2,2,0,0,0-.54.33,2,2,0,0,0-.25.57,4.46,4.46,0,0,0-.17.42c-.05.07-.1.14-.15.21a1.71,1.71,0,0,1-.24.21,1.08,1.08,0,0,0-.37.06,1.77,1.77,0,0,0-.48.28,1.88,1.88,0,0,0-.41.39.61.61,0,0,0-.06.32,1.88,1.88,0,0,0-.51.3,2,2,0,0,0-.47.42,2,2,0,0,0-.18.61c0,.13-.06.27-.08.4a2.68,2.68,0,0,0-.28.31l-.18.19a.51.51,0,0,0-.29,0c-.18.06-.31.24-.46.34a1.77,1.77,0,0,0-.43.35,1,1,0,0,0-.14.37,1.07,1.07,0,0,0-.5.1c-.16.12-.22.34-.33.5l-.13.18-.25.1A2,2,0,0,0,7,18a2,2,0,0,0-.31.52l-.12.23a1.68,1.68,0,0,0-.42.23,1.89,1.89,0,0,0-.45.37,1.89,1.89,0,0,0-.19.55l-.07.24a1.18,1.18,0,0,0-.28.19,1.52,1.52,0,0,0-.31.38l-.08.13a.73.73,0,0,0-.28,0,2,2,0,0,0-.52.33,2,2,0,0,0-.49.37,2,2,0,0,0-.31.54l-.08.21-.05,0a1.9,1.9,0,0,0-.46.37,2.18,2.18,0,0,0-.21.34l-.1,0a2,2,0,0,0-.55.26,2,2,0,0,0-.42.46,2.08,2.08,0,0,0-.3.55c-.05.2.09.42.1.63a2.55,2.55,0,0,0,.05.39,1.42,1.42,0,0,0-.32.17A1.92,1.92,0,0,0,.39,26a2.07,2.07,0,0,0-.36.53,2.07,2.07,0,0,0,0,.64,2,2,0,0,0,.06.64,2.08,2.08,0,0,0,.38.51,1.71,1.71,0,0,1,.16.31s0,.08,0,.12a2,2,0,0,0,0,.61,2,2,0,0,0,.27.56,2.09,2.09,0,0,0,.41.49.44.44,0,0,0,.17.07l0,.09a1.56,1.56,0,0,0,.13.47,1.57,1.57,0,0,0,.31.38l0,0v0a2,2,0,0,0,.15.59,1.93,1.93,0,0,0,.2.57,1.94,1.94,0,0,0,.41.45,2.06,2.06,0,0,0,.51.35.53.53,0,0,0,.26,0,1.68,1.68,0,0,0,.3.5,2,2,0,0,0,.56.26l.17.08c.12.12.31.19.44.31a1.79,1.79,0,0,0,.48.34,1.84,1.84,0,0,0,.57.16,2,2,0,0,0,.61.05A1.22,1.22,0,0,0,7.06,35c.17.09.32.25.49.27a1.89,1.89,0,0,0,.55-.05l.06.05a1.88,1.88,0,0,0,.54.24,2,2,0,0,0,.59.11c.2,0,.35-.2.54-.28l.1,0a1.42,1.42,0,0,0,.39.16c.17,0,.33.2.51.18a.88.88,0,0,0,.36-.16,1.07,1.07,0,0,0,.29.22,1.9,1.9,0,0,0,.57.18,2,2,0,0,0,.61,0c.2,0,.33-.25.51-.35l.24-.14a.76.76,0,0,0,.21,0,1.69,1.69,0,0,0,.53-.07,1.79,1.79,0,0,0,.51-.2l.06-.07.09,0c.17,0,.34-.09.5-.1l.23,0a.76.76,0,0,0,.3.3,2,2,0,0,0,.63,0,2,2,0,0,0,.61,0,.62.62,0,0,0,.16-.08,1.56,1.56,0,0,0,.46.23c.19,0,.39-.09.59-.11a1.7,1.7,0,0,0,.55-.11l.17-.08.06,0c.21,0,.42.23.65.2l.09,0a1.14,1.14,0,0,0,.09.25c0,.11,0,.22,0,.34a1.87,1.87,0,0,0-.08.58,2,2,0,0,0,.13.5c0,.13,0,.27,0,.4a1.9,1.9,0,0,0,0,.6.86.86,0,0,0,.16.31,1.42,1.42,0,0,0-.08.31,3.12,3.12,0,0,0-.05.42,1.89,1.89,0,0,0-.26.49,2.08,2.08,0,0,0-.16.61c0,.21.19.38.25.58a2.07,2.07,0,0,0,.2.46,1.07,1.07,0,0,0-.1.34c0,.17.13.32.18.49l0,.12c0,.08,0,.16-.08.24a1.51,1.51,0,0,0-.14,1.17,2,2,0,0,0,.19.59l0,0a.9.9,0,0,0-.06.25,1.61,1.61,0,0,0,.11.49,1.58,1.58,0,0,1,0,.17l0,0c-.11.16,0,.4-.09.59a1.65,1.65,0,0,0-.07.55c0,.19-.12.41,0,.6a.88.88,0,0,0,.25.31,1.37,1.37,0,0,0-.14.44,1.63,1.63,0,0,0,.12.49l0,.09a1.06,1.06,0,0,0-.19.29c-.06.16,0,.35,0,.53a1.5,1.5,0,0,0,0,.49c0,.06,0,.11.06.17a1.68,1.68,0,0,0-.22.46,1.83,1.83,0,0,0-.12.54c0,.18.18.33.24.5a1.76,1.76,0,0,0,.2.41.82.82,0,0,0-.08.21c0,.17.09.34.11.51a1.48,1.48,0,0,0,.11.47,1.51,1.51,0,0,0,.27.41l.18.21c0,.18-.14.38-.08.56a.75.75,0,0,0,.19.28,1.76,1.76,0,0,0,0,.33,1.19,1.19,0,0,0,.39,1.19,2,2,0,0,0,.42.49,2.11,2.11,0,0,0,.61.2c.21.07.4.26.62.26a2.09,2.09,0,0,0,.6-.11.78.78,0,0,0,.13.09,1.09,1.09,0,0,0,.42.07,1.49,1.49,0,0,0,.33.42,2,2,0,0,0,.57.22,1.91,1.91,0,0,0,.59.14,2,2,0,0,0,.58-.18,1.22,1.22,0,0,1,.27,0,1.14,1.14,0,0,0,.35.13,1.73,1.73,0,0,0,.52-.09c.18,0,.39,0,.55,0l.11-.07.07,0a1.73,1.73,0,0,0,.5.16.78.78,0,0,0,.36-.13.49.49,0,0,0,.15.16,2.22,2.22,0,0,0,.64.23c.21,0,.44-.12.65-.14a1.86,1.86,0,0,0,.6-.15c.2-.09.48,0,.65-.19h0a2,2,0,0,0,.62,0,2.08,2.08,0,0,0,.61-.24,2.2,2.2,0,0,0,.55-.38.75.75,0,0,0,.13-.37h0a1.57,1.57,0,0,0,.39-.29,1.55,1.55,0,0,0,.39-.29,1,1,0,0,0,.12-.34,1.3,1.3,0,0,0,.39-.16,1.68,1.68,0,0,0,.31-.42,1.65,1.65,0,0,0,.31-.42,1.7,1.7,0,0,0,0-.52s0-.07,0-.11h0c.13-.14.11-.38.19-.55a1.61,1.61,0,0,0,.16-.51c0-.18.19-.38.15-.57a.48.48,0,0,0,0-.12,1.37,1.37,0,0,0,.13-.27.91.91,0,0,0,0-1L36,50.41l.08-.2a1.36,1.36,0,0,0,.19-1,1.82,1.82,0,0,0-.14-.54.63.63,0,0,0-.26-.21,1.37,1.37,0,0,0,.08-.29c0-.17.17-.34.14-.52a.42.42,0,0,0,0-.09l0,0a2,2,0,0,0,.19-.6,2,2,0,0,0,.19-.6,1.69,1.69,0,0,0-.16-.55c0-.11,0-.22.07-.33a2,2,0,0,0,.11-.63,2.07,2.07,0,0,0-.23-.59,2.11,2.11,0,0,1-.08-.38c0-.15-.08-.3-.08-.45v0h0a2.09,2.09,0,0,0,.42-.49,2.08,2.08,0,0,0,.1-.64,2,2,0,0,0,0-.64.89.89,0,0,0-.15-.32c.08-.19,0-.42,0-.63a1.84,1.84,0,0,0,0-.61,1.89,1.89,0,0,0-.19-.58c-.07-.14-.13-.29-.21-.41a1.49,1.49,0,0,0,0-.48c0-.13,0-.29,0-.43l.05-.08c.09-.17.32-.31.35-.51a2,2,0,0,0-.11-.61h0a2.88,2.88,0,0,0,.14-.33c.07-.2-.06-.44,0-.66a1.84,1.84,0,0,0-.07-.61.59.59,0,0,1,0-.09,1.74,1.74,0,0,0,.13-.32h.12a1.52,1.52,0,0,0,.5,0l.23,0,.11.08a1.93,1.93,0,0,0,.52.3,1.93,1.93,0,0,0,.6,0,1.87,1.87,0,0,0,.59-.09.61.61,0,0,0,.15-.09l.17.07a.86.86,0,0,0,.42,0,2.41,2.41,0,0,1,.38.17,1.86,1.86,0,0,0,.56.27c.21.06.4.28.62.27a2.18,2.18,0,0,0,.63-.25,2.73,2.73,0,0,0,.51-.22h.06l.25.16a1.82,1.82,0,0,0,.5.29,1.89,1.89,0,0,0,.58,0c.2,0,.42.1.6,0l.12-.06.26.07a2.18,2.18,0,0,0,.66.08c.21,0,.37-.25.57-.34l.16-.08a1.7,1.7,0,0,0,.54.15,2,2,0,0,0,.61-.17,2,2,0,0,0,.61-.17,1.09,1.09,0,0,0,.28-.3,1.59,1.59,0,0,0,.49-.07c.17-.06.41,0,.57-.1a.55.55,0,0,0,.27.09,1.77,1.77,0,0,0,.53-.11c.15-.05.24-.23.36-.34h.21c.21,0,.43.13.62.08a2.06,2.06,0,0,0,.56-.28c.17-.11.2-.37.32-.53a1.73,1.73,0,0,0,.28-.5.8.8,0,0,1,.1-.18,3.33,3.33,0,0,1,.26-.26,1.48,1.48,0,0,0,.36-.33l.1-.16.16,0a1.83,1.83,0,0,0,.48-.3,1.78,1.78,0,0,0,.44-.35,1.84,1.84,0,0,0,.19-.53c.07-.18.24-.34.25-.53A1.93,1.93,0,0,0,55,30a.33.33,0,0,0,0-.06.5.5,0,0,0,.2-.2.76.76,0,0,0,0-.34l.06,0c.17-.1.26-.28.4-.43s.37-.23.45-.41a2,2,0,0,0,.14-.6C56.24,27.72,56.07,27.54,56,27.34Z"/></g></svg>