<svg xmlns="http://www.w3.org/2000/svg" viewBox="0 0 50.45 75.18"><defs><style>.cls-1{fill:#eb6c4d;}</style></defs><title>icon_lightBulb</title><g id="icon_lightBulb"><path class="cls-1" d="M50.38,23.8a2.13,2.13,0,0,0,.06-.67,2.14,2.14,0,0,0-.29-.6s0-.09-.05-.13a1,1,0,0,0,.1-.32,1.87,1.87,0,0,0,0-.59,2,2,0,0,0-.17-.58.6.6,0,0,0-.25-.2s0-.06,0-.08a1.62,1.62,0,0,0,0-.52.49.49,0,0,0,0-.09c0-.1,0-.2.06-.31s.26-.42.25-.64a2.25,2.25,0,0,0-.15-.67c-.07-.18-.25-.28-.4-.41a2.53,2.53,0,0,0,0-.44,1.65,1.65,0,0,0-.11-.51.51.51,0,0,0-.08-.1,1,1,0,0,0,.08-.22,2,2,0,0,0-.08-.61c0-.21.06-.46,0-.64a2.12,2.12,0,0,0-.38-.52.43.43,0,0,0-.15-.07,1.64,1.64,0,0,0,0-.35c-.06-.2,0-.48-.12-.66a1,1,0,0,0-.38-.28s0,0,0-.05c0-.18-.21-.3-.29-.47a1.56,1.56,0,0,0-.27-.43,1.59,1.59,0,0,0-.41-.32L47,12.24s0,0,0,0c0-.18-.19-.31-.28-.46a1.65,1.65,0,0,0-.29-.43l0,0a.69.69,0,0,1,0-.13,1.5,1.5,0,0,0-.08-.49,1.54,1.54,0,0,0-.24-.44,1.66,1.66,0,0,0-.33-.4,1,1,0,0,0-.33-.12s0,0,0,0c0-.2.06-.44,0-.63s-.32-.28-.47-.41a1.93,1.93,0,0,0-.47-.38.69.69,0,0,0-.24-.05A.83.83,0,0,0,44.11,8a1.67,1.67,0,0,0-.39-.33,2.48,2.48,0,0,1-.24-.26,1.22,1.22,0,0,0-.1-.44,1.87,1.87,0,0,0-.4-.42,1.81,1.81,0,0,0-.45-.36A1.88,1.88,0,0,0,42,6.12l-.14,0s0-.1-.07-.14-.32-.17-.45-.28a1.68,1.68,0,0,0-.24-.14.7.7,0,0,0,0-.17,2,2,0,0,0-.29-.55,2,2,0,0,0-.36-.51A2,2,0,0,0,39.84,4c-.2-.09-.36-.29-.57-.31a1.7,1.7,0,0,0-.37,0,1.46,1.46,0,0,0-.22-.16,1.74,1.74,0,0,0-.49-.23h0A2.93,2.93,0,0,0,37.72,3a1.88,1.88,0,0,0-.49-.33.61.61,0,0,0-.19,0s0,0,0,0a2.23,2.23,0,0,0-.43-.53C36.46,2,36.18,2,36,1.89a1.87,1.87,0,0,0-.59-.19l-.07,0a.67.67,0,0,0-.06-.08,2.17,2.17,0,0,0-.61-.28A2.11,2.11,0,0,0,34,1.11a1.44,1.44,0,0,0-.53.12l-.14-.08a1.73,1.73,0,0,0-.5-.23A1.79,1.79,0,0,0,32.3,1c-.13,0-.27,0-.41,0A.89.89,0,0,0,31.6.74a1.65,1.65,0,0,0-.5,0l-.19,0L30.66.55a1.89,1.89,0,0,0-.5-.33,2,2,0,0,0-.6,0A1.9,1.9,0,0,0,29,.29a2.26,2.26,0,0,0-.28.16h0c-.19-.05-.36-.22-.55-.21a1.92,1.92,0,0,0-.57.14.42.42,0,0,0-.14.12A1.42,1.42,0,0,0,27,.27a1.66,1.66,0,0,0-.5.08h-.06A4.43,4.43,0,0,0,25.9.18,1.89,1.89,0,0,0,25.33,0a1.9,1.9,0,0,0-.57.14l-.15,0a1.7,1.7,0,0,1-.34,0,1.66,1.66,0,0,0-.55,0c-.19,0-.42-.1-.61,0a.66.66,0,0,0-.22.18,1.37,1.37,0,0,0-.44-.13c-.18,0-.35.15-.53.2a1.61,1.61,0,0,0-.5.19L21.34.6l-.07,0a1.73,1.73,0,0,0-.53-.13,1.84,1.84,0,0,0-.56,0c-.18,0-.29.24-.44.34a1.74,1.74,0,0,0-.37.3L19,1.14a1.65,1.65,0,0,1-.31,0,1.53,1.53,0,0,0-.45-.23,2.17,2.17,0,0,0-.66,0c-.23,0-.48-.11-.69,0a2.27,2.27,0,0,0-.59.37c-.17.14-.18.42-.31.61L16,2a1.45,1.45,0,0,0-.42.16c-.14.08-.33.09-.46.19a1.54,1.54,0,0,0-.24,0c-.2,0-.46-.07-.65,0a1.23,1.23,0,0,0-.36.38,1.72,1.72,0,0,0-.42,0,2,2,0,0,0-.59.15,2,2,0,0,0-.42.43l-.22.25a1.27,1.27,0,0,0-.55,0,2.16,2.16,0,0,0-.54.38c-.16.15-.15.41-.25.6s0,.1-.06.14a1.37,1.37,0,0,0-.23,0,1.72,1.72,0,0,0-.47.22c-.13.11-.14.32-.24.47s0,.1-.07.15a2.29,2.29,0,0,0-.31.09c-.14.06-.22.23-.32.35h0a2,2,0,0,0-.64.06,2,2,0,0,0-.58.28,2.16,2.16,0,0,0-.54.4,1.92,1.92,0,0,0-.23.58,1.2,1.2,0,0,0-.32.16A2,2,0,0,0,6.47,8a2,2,0,0,0-.36.5.81.81,0,0,0,0,.27L6,8.93c-.13.13-.35.2-.43.36h0A1.75,1.75,0,0,0,5,9.52a2.09,2.09,0,0,0-.47.46,2.22,2.22,0,0,0-.36.57.83.83,0,0,0,0,.44.4.4,0,0,0-.14.07c-.15.15-.17.39-.25.57a1.94,1.94,0,0,0-.22.57.52.52,0,0,0,0,.08,3.24,3.24,0,0,0-.31.47,2,2,0,0,0-.36.53,2.08,2.08,0,0,0,0,.64c0,.08,0,.15,0,.23a1.19,1.19,0,0,0-.27.31,1.72,1.72,0,0,0-.18.51c0,.11,0,.23-.05.35a1.57,1.57,0,0,0-.41.33,1.79,1.79,0,0,0-.16.53,1.75,1.75,0,0,0-.11.53c0,.06,0,.11,0,.17a.6.6,0,0,0-.16.14,1.77,1.77,0,0,0-.17.52l-.06.19-.1.06a2,2,0,0,0-.44.43,2,2,0,0,0-.15.6,1.94,1.94,0,0,0-.07.61,1.4,1.4,0,0,0,.21.48.49.49,0,0,0-.18.17,2.08,2.08,0,0,0-.06.64c0,.12,0,.25,0,.37a2.51,2.51,0,0,0-.26.39c-.09.19,0,.43,0,.64a1.78,1.78,0,0,0,0,.59c0,.16,0,.34,0,.5s0,.08-.06.13c-.06.21.08.43.08.65a1.94,1.94,0,0,0,.07.45,1.43,1.43,0,0,1-.08.17,2.06,2.06,0,0,0-.29.58,2.07,2.07,0,0,0,.06.64,2,2,0,0,0,.06.64.67.67,0,0,0,.07.1,1.54,1.54,0,0,0-.13.5c0,.21.18.38.24.59a1.8,1.8,0,0,0,.24.54h0a.61.61,0,0,0-.06.16A2,2,0,0,0,.6,29a2,2,0,0,0,.15.61,2.34,2.34,0,0,0,.22.3c0,.12.06.23.08.36s0,.4.06.55a1.82,1.82,0,0,0,.36.42h0a.43.43,0,0,0-.08.19A1.78,1.78,0,0,0,1.5,32a.36.36,0,0,0,.08.11,1.94,1.94,0,0,0-.13.55,2.14,2.14,0,0,0,0,.66,2.14,2.14,0,0,0,.32.58,2.08,2.08,0,0,0,.39.53.73.73,0,0,0,.21.11,2.21,2.21,0,0,0,.17.4c.1.16.33.21.47.33l0,0c0,.11,0,.23.07.35a1.69,1.69,0,0,0,.12.51l0,0a2.21,2.21,0,0,0-.08.67c0,.22.26.38.36.59a2,2,0,0,0,.35.55,2,2,0,0,0,.51.4c.15.08.29.17.43.24s.19.25.29.38a2,2,0,0,0,.4.46,2,2,0,0,0,.55.28l.13,0,.2.24c.11.14.15.36.29.46a1.77,1.77,0,0,0,.5.21h.06a.87.87,0,0,0,.06.37,1.81,1.81,0,0,0,.37.41,1.76,1.76,0,0,0,.4.38,2.14,2.14,0,0,0,.25.09c.07.1.14.19.2.29a1.94,1.94,0,0,0,.32.53,2,2,0,0,0,.56.25h0a3.13,3.13,0,0,0,.36.46,2,2,0,0,0,.4.48,2,2,0,0,0,.59.2l.31.13a2,2,0,0,0,.41.46,2,2,0,0,0,.6.18l.37.08a.7.7,0,0,0,.14.21,2.08,2.08,0,0,0,.57.28,2,2,0,0,0,.59.23,2,2,0,0,0,.64,0l.09,0,.35.16a1.69,1.69,0,0,0,.48.23h.08a1.08,1.08,0,0,0,.21.41,2,2,0,0,0,.55.31,3.3,3.3,0,0,0,.45.22l.07.08a1.34,1.34,0,0,0,0,.35,1.81,1.81,0,0,0,.17.56,2,2,0,0,0,.29.53l.09.06c0,.12,0,.24,0,.37a1.62,1.62,0,0,0,0,.5l0,0,0,0a3.4,3.4,0,0,0-.11,1.82,2.05,2.05,0,0,0,.42.47l.15.17a1.29,1.29,0,0,0,0,.15c0,.18-.05.4,0,.57a.9.9,0,0,0,.3.27,1.7,1.7,0,0,0,0,.28,2.16,2.16,0,0,0,.12.64c.09.19.35.28.49.43a1.87,1.87,0,0,0,.47.4,1.92,1.92,0,0,0,.58.22l.12,0a.77.77,0,0,0,.15.23,1.78,1.78,0,0,0,.48.28,1.73,1.73,0,0,0,.5.22.77.77,0,0,0,.3,0l0,.06a1.93,1.93,0,0,0,.43.4c.17.09.39,0,.58.05a1.67,1.67,0,0,0,.55,0l.07,0a2.4,2.4,0,0,0,.39.24c.18.08.41,0,.62,0a1.71,1.71,0,0,0,.57,0h.06a1.76,1.76,0,0,0,.51.2,1.71,1.71,0,0,0,.52.14,1.76,1.76,0,0,0,.52-.16l.17,0,.15,0a1.84,1.84,0,0,0,.58.16,1.89,1.89,0,0,0,.61,0,2,2,0,0,0,.61-.17.77.77,0,0,0,.11-.1l.1,0a1.85,1.85,0,0,0,.55-.13c.19,0,.42,0,.58-.09a1.36,1.36,0,0,0,.12-.11,2,2,0,0,1,.33,0,1.57,1.57,0,0,0,.52,0,1.61,1.61,0,0,0,.48-.2,2.63,2.63,0,0,0,.39-.25l.28,0a1.87,1.87,0,0,0,.59,0,1.93,1.93,0,0,0,.48-.35h0a1.64,1.64,0,0,0,.32,0,1.93,1.93,0,0,0,.58-.12,1.93,1.93,0,0,0,.43-.41,1.87,1.87,0,0,0,.38-.46,1.45,1.45,0,0,0,.08-.52h0a.94.94,0,0,0,.61-.78c0-.11.07-.21.1-.32a1.4,1.4,0,0,0,.4-.23A1.8,1.8,0,0,0,36,52a1.77,1.77,0,0,0,.28-.48,1.83,1.83,0,0,0,0-.56v-.09l0,0a2.07,2.07,0,0,0,.15-.61c.05-.21.23-.41.22-.62a2.17,2.17,0,0,0-.17-.64c-.07-.18-.28-.27-.43-.41,0,0,.06-.06.07-.1a1.7,1.7,0,0,0-.05-.52,1.62,1.62,0,0,0-.07-.5.49.49,0,0,0-.07-.1,1.78,1.78,0,0,1,0-.33,1.5,1.5,0,0,0,0-.5.78.78,0,0,1,0-.2l.09-.09a2,2,0,0,0,.2-.61,4,4,0,0,0,.17-.51l.28-.1a2,2,0,0,0,.59-.25,2.09,2.09,0,0,0,.37-.52c.13-.18.37-.3.43-.51,0,0,0-.07,0-.11a2.29,2.29,0,0,0,.28-.13.46.46,0,0,0,.15-.19l.07,0a2.09,2.09,0,0,0,.65,0A2.09,2.09,0,0,0,39.8,43a2,2,0,0,0,.53-.37,2.11,2.11,0,0,0,.26-.59,2,2,0,0,1,.2-.32,1.14,1.14,0,0,0,.43-.23,1.51,1.51,0,0,0,.16-.3,1.46,1.46,0,0,0,.57-.07,2.11,2.11,0,0,0,.48-.42.68.68,0,0,0,.13-.35.92.92,0,0,0,.39,0,2.09,2.09,0,0,0,.52-.38,1.62,1.62,0,0,0,.77-1l.09-.3h0c.16-.14.44-.17.55-.36a2.12,2.12,0,0,0,.13-.64l0-.19a.53.53,0,0,0,.16-.06,1.67,1.67,0,0,0,.32-.4,1.63,1.63,0,0,0,.28-.42,2,2,0,0,0,0-.25l.13-.1c.17-.11.42-.13.54-.28a2,2,0,0,0,.29-.54c.07-.19,0-.4,0-.6,0,0,0,0,0,0l0,0a1.63,1.63,0,0,0,.42-.34,1.67,1.67,0,0,0,.28-.46,1.8,1.8,0,0,0,.19-.52.63.63,0,0,0,0-.07l.05,0a1.64,1.64,0,0,0,.31-.43,1.77,1.77,0,0,0,.22-.5,1.26,1.26,0,0,0-.05-.44s.07,0,.1,0,.16-.35.24-.5a1.72,1.72,0,0,0,.21-.5,1,1,0,0,0-.05-.41l.07,0a1.67,1.67,0,0,0,.25-.46,1.64,1.64,0,0,0,.25-.46.52.52,0,0,0,0-.05l.07,0c.18-.15.23-.41.34-.59a2.1,2.1,0,0,0,.31-.58,2.12,2.12,0,0,0,0-.66c0-.16,0-.33,0-.49a1.24,1.24,0,0,0,.23-.37,2,2,0,0,0,.12-.61,2.08,2.08,0,0,0,0-.63.44.44,0,0,0-.1-.13c0-.06,0-.12.06-.18s-.1-.35-.14-.53a.5.5,0,0,0,.18-.16A2.23,2.23,0,0,0,50.38,23.8Zm-17.82,16a.93.93,0,0,1-.18.26c0,.05,0,.11,0,.16a1.2,1.2,0,0,1,0,.39,1.17,1.17,0,0,1-.13.36c-.06.12-.05.29-.14.39l-.06,0a.64.64,0,0,1,.06.25A1.14,1.14,0,0,1,32,42a1.44,1.44,0,0,1-.13.3h0c0,.11,0,.24,0,.36a1.14,1.14,0,0,1,0,.35.74.74,0,0,1-.13.2.5.5,0,0,1,.05.17,109.46,109.46,0,0,0-.16.72.62.62,0,0,1-.11.11l0,0a1.3,1.3,0,0,1,0,.4,1.21,1.21,0,0,1-.09.38,1.18,1.18,0,0,1-.21.32v0a2.51,2.51,0,0,1-.07.31,1.37,1.37,0,0,1-.12.4.44.44,0,0,1-.11.11,1.57,1.57,0,0,1,0,.3,1.4,1.4,0,0,1-.16.4,1.43,1.43,0,0,1-.2.39,1.36,1.36,0,0,1-.38.21,1.82,1.82,0,0,1-.11.25c-.06.11-.08.25-.17.34a.35.35,0,0,1-.18.08.72.72,0,0,1,0,.32,1.26,1.26,0,0,1-.19.33,1.18,1.18,0,0,1-.26.27.55.55,0,0,1-.14.06,1.66,1.66,0,0,1-.07.3.89.89,0,0,1-.42.54,1.15,1.15,0,0,1-.28.21,1.11,1.11,0,0,1-.35,0,.65.65,0,0,1-.66-.17c-.1-.07-.23-.1-.31-.2s0-.25-.08-.36a1,1,0,0,1-.06-.33c0-.12-.08-.24,0-.36A1.2,1.2,0,0,1,27,48.5c.07-.1.21-.12.31-.19l.09-.08a1.08,1.08,0,0,1,0-.34c0-.12,0-.27.06-.38a1.27,1.27,0,0,1,.25-.29.26.26,0,0,1,.09,0,.53.53,0,0,1,0-.16,1.19,1.19,0,0,1,.17-.33l.05-.07h0a1.5,1.5,0,0,1,0-.46c0-.14.17-.25.23-.39a1.43,1.43,0,0,1,.19-.4l0,0c0-.1.09-.19.12-.3a1.36,1.36,0,0,1,.11-.4,1.08,1.08,0,0,1,.26-.25.74.74,0,0,1,0-.32c.05-.13.22-.18.31-.29a1,1,0,0,1,.12-.1.37.37,0,0,1,0-.09,1.16,1.16,0,0,1,.05-.36,1.19,1.19,0,0,1,.1-.36.53.53,0,0,1,.13-.12s0-.1,0-.15a1.15,1.15,0,0,1,0-.35,1,1,0,0,1,.2-.26l0-.1a1.18,1.18,0,0,1-.09-.35,1.14,1.14,0,0,1,.13-.34c0-.08.05-.17.09-.25a1.87,1.87,0,0,1-.08-.3,1.33,1.33,0,0,1-.09-.4c0-.14.17-.23.23-.35a1,1,0,0,1,.06-.08.51.51,0,0,1-.12-.2c0-.14.07-.28.08-.41s0-.06,0-.09l-.05-.08a1.26,1.26,0,0,1-.18-.37,1.23,1.23,0,0,1,0-.4c0-.14-.08-.3,0-.43a.63.63,0,0,1,.07-.13,1.36,1.36,0,0,1-.08-.4c0-.14.12-.26.16-.4v-.06a.41.41,0,0,1-.14-.17,1.18,1.18,0,0,1,0-.36,1,1,0,0,1,0-.24l-.17-.18a.65.65,0,0,1-.22-.64,1,1,0,0,1,0-.2c0-.06-.1-.13-.14-.2a2.28,2.28,0,0,1-.14-.24,2.68,2.68,0,0,0-.19-.2l-.2-.16a.51.51,0,0,1-.16.08,1,1,0,0,1-.34,0,2.82,2.82,0,0,0-.31.09l-.11.06c0,.05-.07.11-.12.17a2.51,2.51,0,0,0-.18.25,1.56,1.56,0,0,1,.11.38c0,.09.05.17.08.26a.61.61,0,0,1,.18.17,1.45,1.45,0,0,1,.14.43,1.52,1.52,0,0,1,.13.45.36.36,0,0,1-.08.17l0,.05a1.15,1.15,0,0,1,.09.35,1.28,1.28,0,0,1,.06.35h0a1.33,1.33,0,0,1,.18.36,1,1,0,0,1,0,.77,1.28,1.28,0,0,1-.1.38c-.07.12-.2.17-.3.26s-.14.14-.21.2l-.09.24a1.22,1.22,0,0,1-.19.35,1.19,1.19,0,0,1-.29.26c-.09.06-.16.16-.24.22l-.15.15a1.07,1.07,0,0,1-.27.21,1,1,0,0,1-.33.11c-.12,0-.23.12-.35.11a1.2,1.2,0,0,1-.34-.13,1.14,1.14,0,0,1-.29-.2.85.85,0,0,1-.16-.24,1.89,1.89,0,0,0-.26-.11,1.34,1.34,0,0,1-.4-.11,1.29,1.29,0,0,1-.28-.3.75.75,0,0,1-.28-.74s0,0,0-.06h0a1,1,0,0,1-.28-.68,1.23,1.23,0,0,1,0-.37,1.19,1.19,0,0,1,.18-.33c0-.06.05-.12.08-.18h0a1.36,1.36,0,0,1-.13-.4c0-.14.15-.25.2-.38a1.07,1.07,0,0,1,.13-.23.66.66,0,0,0,0-.17,1.29,1.29,0,0,1,0-.43c0-.15-.06-.33,0-.46a2,2,0,0,1,.14-.24c-.12-.07-.18-.23-.28-.32a1.53,1.53,0,0,1-.3-.29l-.11,0h-.14a.45.45,0,0,1-.1.16c-.1.1-.28.07-.4.13a1.06,1.06,0,0,1-.27.08.47.47,0,0,1-.05.24.7.7,0,0,1-.17.15.49.49,0,0,1,.05.22c0,.12-.13.21-.18.32a1,1,0,0,1-.17.28l0,0a.39.39,0,0,1,.05.12.9.9,0,0,1,0,.29.45.45,0,0,1,.13.11c.09.12,0,.3.08.44a1.23,1.23,0,0,1,.05.41c0,.15.09.3,0,.44a1.63,1.63,0,0,1-.16.33s0,0,0,.06a2.62,2.62,0,0,1,.22.24.83.83,0,0,1,.3.82,1.34,1.34,0,0,1,0,.39.33.33,0,0,1,.1.1,1.53,1.53,0,0,1,.15.44.57.57,0,0,1-.07.29s.06.07.08.12a1.45,1.45,0,0,1,.09.44,1.48,1.48,0,0,1,.05.45.47.47,0,0,1-.06.14h0a.65.65,0,0,1,.12.67h0a1.21,1.21,0,0,0,.09.23,1.09,1.09,0,0,1,.13.34.71.71,0,0,0,.07.16l.08.09a1.44,1.44,0,0,1,.34.28,1.38,1.38,0,0,1,.15.41,1.42,1.42,0,0,1,.1.43.52.52,0,0,1,0,.15,1.05,1.05,0,0,1,.07.19.73.73,0,0,0,.13.14,1.3,1.3,0,0,1,.31.3c.09.12.27.2.32.34a1.55,1.55,0,0,1,.1.46.37.37,0,0,1-.05.16,1.76,1.76,0,0,1,.1.3,1.25,1.25,0,0,1,.1.37.35.35,0,0,1,0,.07l.06,0c.1.11.27.15.34.29a1.46,1.46,0,0,1,.14.42.36.36,0,0,1,0,.16,1.29,1.29,0,0,1,.24.24c.09.12.25.19.3.33s0,.1,0,.15l.12.1c.11.1.27.16.35.29s0,.31,0,.46a1.26,1.26,0,0,1,0,.42c0,.15.06.32,0,.45a1.5,1.5,0,0,1-.24.39c-.1.11-.28.11-.42.19a1.43,1.43,0,0,1-.38.22,1.38,1.38,0,0,1-.44,0,1.43,1.43,0,0,1-.44-.07,1.43,1.43,0,0,1-.34-.29,1.32,1.32,0,0,1-.26-.34,1.29,1.29,0,0,1-.13-.4v0l0,0c-.12-.09-.3-.11-.38-.23a1.46,1.46,0,0,1-.16-.41,1.29,1.29,0,0,1,0-.34.47.47,0,0,1-.22-.11,1.45,1.45,0,0,1-.21-.39,1.08,1.08,0,0,1-.06-.84h0a1,1,0,0,1-.08-.08.55.55,0,0,1-.06-.27l-.12-.06c-.13-.09-.32-.11-.41-.23a1.55,1.55,0,0,1-.18-.43,1.46,1.46,0,0,1-.07-.45.53.53,0,0,1,0-.08A1.82,1.82,0,0,1,22,46c-.07-.12-.22-.21-.24-.35a.68.68,0,0,1,0-.19.57.57,0,0,1-.13-.13,1.38,1.38,0,0,1-.11-.42,1.41,1.41,0,0,1-.11-.42.9.9,0,0,1,.07-.27l-.08-.11c-.07-.11-.2-.19-.23-.32a1.29,1.29,0,0,1,0-.39,1.18,1.18,0,0,1,.09-.34c0-.08-.1-.15-.13-.23s-.32-.06-.42-.17a1.56,1.56,0,0,1-.28-.38c-.07-.14,0-.32,0-.47s0-.2-.05-.29l-.05-.09a1.14,1.14,0,0,1-.07-.88s0-.1,0-.15a.57.57,0,0,1-.13-.19,1.44,1.44,0,0,1-.05-.45,1.51,1.51,0,0,1,0-.47.41.41,0,0,1,.14-.19.58.58,0,0,1-.08-.17,1.18,1.18,0,0,1,0-.37s0,0,0-.06h0a1.26,1.26,0,0,1-.17-.38c0-.14-.17-.26-.17-.41a1.45,1.45,0,0,1,.12-.43A1.27,1.27,0,0,1,20,37a.51.51,0,0,1,0-.14,1.15,1.15,0,0,1,0-.35,1.06,1.06,0,0,1,.11-.33,1,1,0,0,1,.2-.25h0a1.05,1.05,0,0,1,0-.34,1,1,0,0,1,.09-.33c0-.11,0-.26.1-.35l.07,0a.35.35,0,0,1,0-.12c0-.12.11-.23.15-.34a1,1,0,0,1,.15-.3c.07-.1.08-.25.17-.32a1.45,1.45,0,0,1,.22-.13,2.23,2.23,0,0,1,.16-.3,1.21,1.21,0,0,1,.24-.31,1.17,1.17,0,0,1,.33-.21,2.24,2.24,0,0,0,.23-.15,1.5,1.5,0,0,1,.1-.16c.09-.12.12-.3.25-.38a1.5,1.5,0,0,1,.41-.2c.14,0,.3.06.45.07a1.44,1.44,0,0,1,.44,0,1.39,1.39,0,0,1,.36.25l.23.19a.39.39,0,0,1,.21,0,.93.93,0,0,1,.25.19l.28,0a1.38,1.38,0,0,1,.41.13.69.69,0,0,1,.16.13.72.72,0,0,0,.15-.11,1.19,1.19,0,0,1,.28-.21l.09-.16A1.12,1.12,0,0,1,26.9,32a1.44,1.44,0,0,1,.41-.17,1.26,1.26,0,0,1,.42.09A1,1,0,0,1,28,31.7a1.33,1.33,0,0,1,.42,0h.2a.28.28,0,0,1,.08-.07,1.28,1.28,0,0,1,.38-.06,1,1,0,0,1,.71.2,1.23,1.23,0,0,1,.32.2,1.19,1.19,0,0,1,.15.35c0,.09.09.18.12.27l.07,0a1.21,1.21,0,0,1,.28.25,1.17,1.17,0,0,1,.09.36h0a.66.66,0,0,1,.22.11,1.14,1.14,0,0,1,.19.31.67.67,0,0,1,.18.67c0,.08,0,.16,0,.25a.68.68,0,0,1,.16.22,1.12,1.12,0,0,1,0,.35c0,.09,0,.2,0,.3a1.69,1.69,0,0,0,.11.22,1,1,0,0,1,.15.3c0,.11.15.21.15.33h0a.38.38,0,0,1,.16.11,1.4,1.4,0,0,1,.17.39,1,1,0,0,1,0,.81l0,.06a.43.43,0,0,1,.09.14c0,.14-.06.29-.06.43a1.13,1.13,0,0,1-.05.3l0,.05a1.21,1.21,0,0,1,.15.36,1.18,1.18,0,0,1,0,.39C32.54,39.53,32.61,39.69,32.56,39.81Z"/><path class="cls-1" d="M38,66.53a1.69,1.69,0,0,0,.18-1.29,4.19,4.19,0,0,0-.14-.5.75.75,0,0,0,0-.11,2,2,0,0,0-.06-.63,2.15,2.15,0,0,0-.21-.62c-.11-.17-.34-.22-.51-.34l0-.05a2.69,2.69,0,0,0,.17-.52,1.59,1.59,0,0,0,.31-.34,1.75,1.75,0,0,0,.25-.47c0-.17-.08-.35-.09-.53a1.52,1.52,0,0,0-.09-.49,1.61,1.61,0,0,0-.2-.35v0a1.19,1.19,0,0,0-.35-1.2,2,2,0,0,0-.41-.5,1.36,1.36,0,0,0-.49-.18c-.08-.19-.08-.42-.21-.56a2.09,2.09,0,0,0-.52-.37c-.18-.1-.43,0-.63,0a1.76,1.76,0,0,0-.58,0,1.12,1.12,0,0,1-.29,0l-.07,0a2.11,2.11,0,0,0-.59-.27,2.11,2.11,0,0,0-.65.08,2,2,0,0,0-.63.16c-.19.1-.3.3-.45.46a1,1,0,0,1-.17.12,1.41,1.41,0,0,0-.2,0c-.19,0-.43-.08-.61,0l0,0h-.16a1.88,1.88,0,0,0-.63,0c-.21,0-.48-.07-.68,0a.59.59,0,0,0-.13.12h-.09a1.94,1.94,0,0,0-.61,0,1.61,1.61,0,0,0-.49.27.45.45,0,0,0-.14-.12,2.21,2.21,0,0,0-.69,0,2.12,2.12,0,0,0-.66,0,2.13,2.13,0,0,0-.55.37l0,0H25.8a1.85,1.85,0,0,1-.31-.06,1.49,1.49,0,0,0-.27-.21c-.17-.09-.29-.32-.48-.36a1.92,1.92,0,0,0-.59.09,2,2,0,0,0-.53.1,2.85,2.85,0,0,0-.47-.06l-.31,0a1.43,1.43,0,0,0-.34-.34,2,2,0,0,0-.59-.16c-.21-.05-.39-.23-.59-.22a2,2,0,0,0-.56.14.73.73,0,0,0-.15-.1,1.72,1.72,0,0,0-.52-.14,1.82,1.82,0,0,0-.55,0c-.18,0-.29.24-.44.33a1.58,1.58,0,0,0-.41.32,1.78,1.78,0,0,0-.15.24,1.06,1.06,0,0,0-.35,0,2,2,0,0,0-.56.27,2.11,2.11,0,0,0-.5.41c-.11.15-.09.38-.13.57a2.07,2.07,0,0,0-.41.44c-.14.16-.39.24-.47.42a2.1,2.1,0,0,0-.15.62c0,.21.15.4.19.6a1.76,1.76,0,0,0,.2.55c.1.18.08.45.24.59a.69.69,0,0,0,.26.13l0,0a2.17,2.17,0,0,0-.33.58,2.11,2.11,0,0,0-.26.62,2.18,2.18,0,0,0,.1.66,1,1,0,0,1,0,.21.69.69,0,0,0-.06.15,2,2,0,0,0,.05.63,2,2,0,0,0,.13.61c.09.19.28.3.43.46s.2.3.32.42a1.4,1.4,0,0,0-.27.26,1.86,1.86,0,0,0-.29.53,2.19,2.19,0,0,0-.18.57,1.75,1.75,0,0,0-.21.19,2.23,2.23,0,0,0-.39.56c-.08.21,0,.45,0,.68a1.93,1.93,0,0,0,0,.63,2,2,0,0,0,.26.58,2.13,2.13,0,0,0,.38.54,2.13,2.13,0,0,0,.61.26,2.07,2.07,0,0,0,.63.18h0a1.33,1.33,0,0,0,.12.15,1.73,1.73,0,0,0,.42.31c.16.06.35,0,.53,0h0a.39.39,0,0,0,0,.12,1.92,1.92,0,0,0,.41.42c.15.12.38.07.56.14a1.93,1.93,0,0,0,.22,0,1.76,1.76,0,0,0,.23.39,2,2,0,0,0,.44.44c.17.1.42,0,.62.08a1.76,1.76,0,0,0,.58.06,2,2,0,0,0,.29-.07l0,0a1.84,1.84,0,0,0,.56.07c.19,0,.39.16.57.12a1.44,1.44,0,0,0,.22-.09s0,.07.07.09a2,2,0,0,0,.61.11,1.91,1.91,0,0,0,.59.09.66.66,0,0,0,.21-.07,1.7,1.7,0,0,0,.48.3,2,2,0,0,0,.62,0c.18,0,.37.08.55.07a.63.63,0,0,0,.15.11,2.1,2.1,0,0,0,.64.07,1.63,1.63,0,0,0,1.25-.22l.29-.17a4.19,4.19,0,0,0,.5-.08,2,2,0,0,0,.53-.09,1.21,1.21,0,0,0,.2.09,2,2,0,0,0,.63.06,2.12,2.12,0,0,0,.65-.06,2.12,2.12,0,0,0,.52-.4l.21-.17a.53.53,0,0,0,.19.14,2.24,2.24,0,0,0,.68.06c.22,0,.4-.22.61-.3a1.88,1.88,0,0,0,.55-.3c.17-.13.46-.16.59-.35a.56.56,0,0,0,0-.13,1.94,1.94,0,0,0,.6-.16c.19-.1.29-.31.44-.46a1.45,1.45,0,0,0,.5-.07,2,2,0,0,0,.56-.31,2.15,2.15,0,0,0,.48-.45c.11-.18,0-.44.1-.65a1.86,1.86,0,0,0,.09-.61s0,0,0-.07l0-.08a1.62,1.62,0,0,0,.29-.44,1.66,1.66,0,0,0,.13-.52,1,1,0,0,0-.24-1,1.73,1.73,0,0,0-.32-.45l-.06,0a1.48,1.48,0,0,0-.1-.42s0-.06-.05-.09a1,1,0,0,0,.33-.23A2.18,2.18,0,0,0,38,66.53ZM29.22,71.1a1.86,1.86,0,0,0-.57.08l-.09.06,0,0a2.11,2.11,0,0,0-.64-.06c-.22,0-.45-.17-.66-.12l-.21.08-.07,0a2,2,0,0,0-.62,0,2,2,0,0,0-.62,0l-.07,0a1.76,1.76,0,0,0-.48-.2,1.94,1.94,0,0,0-.59-.12A1.94,1.94,0,0,0,24,71l-.08,0a.52.52,0,0,0-.1-.08,1.83,1.83,0,0,0-.56-.08,1.79,1.79,0,0,0-.56,0h0a1.67,1.67,0,0,0-.48-.19,2.69,2.69,0,0,1-.39-.16,1.55,1.55,0,0,0-.21-.23,1.91,1.91,0,0,0-.48-.33c-.18-.06-.39,0-.58,0h-.26a2.17,2.17,0,0,0-.16-.18,3.15,3.15,0,0,0,.17-.55,2.79,2.79,0,0,0,.14-.48l0,0a.93.93,0,0,0,.42-.88,1.59,1.59,0,0,0,0-.51.74.74,0,0,0-.13-.27,1.52,1.52,0,0,0,.15-.48,1.72,1.72,0,0,0-.05-.54,1.83,1.83,0,0,0-.18-.52.42.42,0,0,0-.15-.11l0,0a2.19,2.19,0,0,0,.55-.38c.14-.16.11-.43.2-.64a2.9,2.9,0,0,0,.11-.36.87.87,0,0,0,0,.28.91.91,0,0,0,.09.27,1,1,0,0,0,.16.25c.07.07.19.06.28.1a.84.84,0,0,0,.26.09h.08a.38.38,0,0,0,.12.15,1.13,1.13,0,0,0,.32.11c.11,0,.22-.06.33-.07a.94.94,0,0,0,.3-.08h.08a.93.93,0,0,0,.3.06c.11,0,.22.08.33.05a.37.37,0,0,0,.13-.08l.06,0a.81.81,0,0,0,.26,0,.87.87,0,0,0,.27,0l0,0a.66.66,0,0,0,.18.09.81.81,0,0,0,.26,0,.87.87,0,0,0,.27,0l0,0,.05,0c.09.05.15.18.26.2a1.06,1.06,0,0,0,.33,0l.13,0a.5.5,0,0,0,.09.06,1.07,1.07,0,0,0,.33,0c.11,0,.23.08.34.05a1,1,0,0,0,.23-.11l.15,0a1,1,0,0,0,.31.08,1,1,0,0,0,.3-.11,1.47,1.47,0,0,0,.24-.11.5.5,0,0,0,.16,0,.86.86,0,0,0,.25-.1c.09,0,.2,0,.26-.08l0,0,.07,0a.83.83,0,0,0,.26,0,.56.56,0,0,0,.2-.08.65.65,0,0,0,.17.13c.09,0,.21,0,.31,0a.88.88,0,0,0,.29,0,.91.91,0,0,0,.27-.11l.12-.08a.59.59,0,0,0,.19,0c.09,0,.16-.08.25-.11l0,0h0a.82.82,0,0,0,.26.07.85.85,0,0,0,.27,0,.91.91,0,0,0,.27-.08l0,0a.72.72,0,0,0,.23.07.91.91,0,0,0,.27-.07c.09,0,.21,0,.28-.05a1,1,0,0,0,.21-.2c.06-.07,0-.19.07-.28a.79.79,0,0,0,.05-.26c0-.09.07-.19,0-.29s-.12-.16-.17-.23a.51.51,0,0,0-.43-.31.88.88,0,0,0-.26-.1.91.91,0,0,0-.27.07.89.89,0,0,0-.26.09h0a.48.48,0,0,0-.21-.11.94.94,0,0,0-.28.08,1,1,0,0,0-.25.08l-.2,0a.75.75,0,0,0-.25,0l-.15,0h0a.86.86,0,0,0-.28-.07c-.1,0-.2-.09-.31-.07s-.18.12-.26.17l-.1.07h0a.82.82,0,0,0-.25-.07.85.85,0,0,0-.25.09.83.83,0,0,0-.24.11h0l-.12,0a.84.84,0,0,0-.26-.07l-.07,0,0,0a1,1,0,0,0-.3-.09,1,1,0,0,0-.31-.06,1,1,0,0,0-.29.11h0a.46.46,0,0,0-.15-.12,1.07,1.07,0,0,0-.33,0,1,1,0,0,0-.33,0l-.12.05-.1,0a1,1,0,0,0-.31,0,1,1,0,0,0-.32,0,.59.59,0,0,0-.16.13l0,0a.89.89,0,0,0-.28,0,1,1,0,0,0-.25,0c-.05-.06-.09-.13-.17-.15a.56.56,0,0,0-.23,0,.94.94,0,0,0-.16-.17,1.09,1.09,0,0,0-.27-.19c-.1,0-.22,0-.33,0a1,1,0,0,0-.31,0l-.06,0a1,1,0,0,0-.25-.1,1.12,1.12,0,0,0-.34-.05c-.1,0-.18.1-.27.15a.31.31,0,0,0-.16-.09,1,1,0,0,0-.29.07.91.91,0,0,0-.28.08c-.08,0-.13.14-.19.21a1.43,1.43,0,0,0-.17.18,1.9,1.9,0,0,0,0-.55,2.1,2.1,0,0,0-.16-.63,2,2,0,0,0-.46-.44.88.88,0,0,0,0-.2,1.84,1.84,0,0,0-.33-.45,1.39,1.39,0,0,1-.13-.26l0-.08a2.32,2.32,0,0,0,.56.16,1.55,1.55,0,0,0,1.2,0l.12,0a1.49,1.49,0,0,0,.37.13,1.68,1.68,0,0,0,.52.07l.14-.05a1.09,1.09,0,0,1,.23.08,1.69,1.69,0,0,0,.51.21,1.74,1.74,0,0,0,.56,0l.41,0a.54.54,0,0,0,.15.1,1.66,1.66,0,0,0,.51,0h0a1.21,1.21,0,0,1,.24.13,2,2,0,0,0,.55.33,2,2,0,0,0,.63.13,2.16,2.16,0,0,0,.67,0,2.15,2.15,0,0,0,.57-.35l.21-.14h.17a2,2,0,0,0,.61.07.8.8,0,0,0,.24-.1,1.85,1.85,0,0,0,.56.22c.22,0,.43-.14.65-.19a1.93,1.93,0,0,0,.61-.18,2.19,2.19,0,0,0,.23-.17,2.21,2.21,0,0,1,.35-.1,1.72,1.72,0,0,0,.55-.14,2,2,0,0,0,.2-.14,1.11,1.11,0,0,0,.28.08,2.09,2.09,0,0,0,.64-.11l.22,0,0,.06a2.47,2.47,0,0,0-.21.39.85.85,0,0,0,0,.44s-.06,0-.08,0a2.16,2.16,0,0,0-.24.63,3.5,3.5,0,0,0,.08,1.88,1.82,1.82,0,0,0,.45.41,1,1,0,0,0-.26.11c-.18.12-.22.39-.36.56a1.89,1.89,0,0,0-.32.53,2,2,0,0,0-.1.47,1.19,1.19,0,0,0-.24-.09.88.88,0,0,0-.26-.1.91.91,0,0,0-.27.07.88.88,0,0,0-.26.09h0a.49.49,0,0,0-.21-.11.94.94,0,0,0-.28.08,1,1,0,0,0-.25.08l-.2,0a.75.75,0,0,0-.25,0l-.15,0h0a.86.86,0,0,0-.28-.07c-.1,0-.2-.09-.31-.07s-.18.12-.26.17l-.1.07h0a.83.83,0,0,0-.25-.07.85.85,0,0,0-.25.09.84.84,0,0,0-.24.11h0l-.12,0a.84.84,0,0,0-.26-.07l-.07,0,0,0a1,1,0,0,0-.3-.09,1,1,0,0,0-.31-.06,1,1,0,0,0-.29.11h0a.46.46,0,0,0-.15-.12,1.07,1.07,0,0,0-.33,0,1,1,0,0,0-.33,0l-.12.05-.1,0a1,1,0,0,0-.31,0,1,1,0,0,0-.32,0,.59.59,0,0,0-.16.13l0,0a.89.89,0,0,0-.28,0,1,1,0,0,0-.25,0c-.05-.06-.09-.13-.17-.15a.56.56,0,0,0-.23,0,.94.94,0,0,0-.16-.17,1.09,1.09,0,0,0-.27-.19c-.1,0-.22,0-.33,0a1,1,0,0,0-.31,0l-.06,0a1,1,0,0,0-.25-.1,1.12,1.12,0,0,0-.34-.05c-.1,0-.18.1-.27.15a.31.31,0,0,0-.16-.09,1,1,0,0,0-.29.07.91.91,0,0,0-.28.08c-.08,0-.13.14-.19.21s-.15.12-.19.21a.93.93,0,0,0,0,.28.72.72,0,0,0,.08.55,1,1,0,0,0,.16.25c.07.07.19.06.28.1a.84.84,0,0,0,.26.09h.08a.38.38,0,0,0,.12.15,1.13,1.13,0,0,0,.32.11c.11,0,.22-.06.33-.07a.94.94,0,0,0,.3-.08h.08a.93.93,0,0,0,.3.06c.11,0,.22.08.33.05a.37.37,0,0,0,.13-.08l.06,0a.81.81,0,0,0,.26,0,.87.87,0,0,0,.27,0l0,0a.66.66,0,0,0,.18.09.81.81,0,0,0,.26,0,.87.87,0,0,0,.27,0l0,0,.05,0c.09.05.15.18.26.2a1.06,1.06,0,0,0,.33,0l.13,0a.51.51,0,0,0,.09.06,1.07,1.07,0,0,0,.33,0c.11,0,.23.08.34.05a1,1,0,0,0,.23-.11l.15,0a1,1,0,0,0,.31.08,1,1,0,0,0,.3-.11,1.47,1.47,0,0,0,.24-.11.51.51,0,0,0,.16,0,.86.86,0,0,0,.25-.1c.09,0,.2,0,.26-.08l0,0,.07,0a.83.83,0,0,0,.26,0,.56.56,0,0,0,.2-.08.65.65,0,0,0,.17.13c.09,0,.21,0,.31,0a.89.89,0,0,0,.29,0,.91.91,0,0,0,.27-.11l.12-.08a.6.6,0,0,0,.19,0c.09,0,.16-.08.25-.11l0,0h0a.82.82,0,0,0,.26.07.85.85,0,0,0,.27,0,.91.91,0,0,0,.27-.08l0,0a.72.72,0,0,0,.23.07.91.91,0,0,0,.27-.07c.09,0,.21,0,.28-.05a1,1,0,0,0,.21-.2.18.18,0,0,0,0-.06l.09.13a2,2,0,0,0,.4.51.77.77,0,0,0,.25.12.63.63,0,0,0,0,.36.93.93,0,0,0,.27.32,1.32,1.32,0,0,0-.48.12,2.08,2.08,0,0,0-.46.45L33,70a1.94,1.94,0,0,0-.62.07c-.21.08-.31.33-.49.47l-.27.24a.62.62,0,0,0-.29-.2,2.18,2.18,0,0,0-.67.07,2.08,2.08,0,0,0-.65.1,1.63,1.63,0,0,0-.45.38A1.6,1.6,0,0,0,29.22,71.1Z"/></g></svg>