<svg xmlns="http://www.w3.org/2000/svg" viewBox="0 0 96.15 74.36"><defs><style>.cls-1{fill:#fff;}</style></defs><title>icon_clip-white</title><g id="icon_clip-white"><path class="cls-1" d="M95.81,69.19a3.92,3.92,0,0,0,.16-.5,1,1,0,0,0,0-1.1c0-.11,0-.21-.06-.32a1.56,1.56,0,0,0,.06-.38,2.06,2.06,0,0,0,0-.59,1.9,1.9,0,0,0-.32-.5,1.83,1.83,0,0,0-.37-.46,1.05,1.05,0,0,0-.33-.13l-.07-.15c-.07-.18-.06-.42-.17-.55a2.16,2.16,0,0,0-.46-.36c-.15-.09-.36,0-.54-.07l-.17-.26a1.71,1.71,0,0,0-.33-.44,1.69,1.69,0,0,0-.51-.2c-.18-.07-.33-.25-.5-.26a1.69,1.69,0,0,0-.57.07.43.43,0,0,0-.23.15l-.21-.06a1.57,1.57,0,0,0-.5-.17,1.52,1.52,0,0,0-.5.14h0a1.19,1.19,0,0,0-.24-.15c-.18-.1-.3-.33-.5-.36a2.13,2.13,0,0,0-.6.11,1.93,1.93,0,0,0-.58.13,1,1,0,0,0-.33.29,2.23,2.23,0,0,0-.45.11,2.38,2.38,0,0,1-.25,0c-.14-.08-.25-.23-.41-.25a1.64,1.64,0,0,0-.49,0l-.08,0a2.2,2.2,0,0,0-.55-.28,2,2,0,0,0-.62,0c-.12,0-.26,0-.38,0l0,0a1.36,1.36,0,0,0,0-.37,1.85,1.85,0,0,0-.15-.56l0,0a.37.37,0,0,0,.08-.15,2.24,2.24,0,0,0,0-.57.51.51,0,0,0-.1-.23,1.32,1.32,0,0,0,.25-.27,2.23,2.23,0,0,0,.14-.58,2.06,2.06,0,0,0,.14-.58,1.94,1.94,0,0,0-.21-.55l-.11-.29v-.14c0-.16.11-.33.07-.49l0,0,0,0c.12-.16.37-.26.45-.46a2.13,2.13,0,0,0,0-.64c0-.13,0-.25,0-.38a2,2,0,0,0,.12-.5,1.9,1.9,0,0,0,.07-.56,1.07,1.07,0,0,0-.06-.15,1.42,1.42,0,0,0,.11-.16,1.9,1.9,0,0,0,.18-.54,1.85,1.85,0,0,0,.07-.59,1.89,1.89,0,0,0-.24-.54l-.12-.24c0-.09,0-.19,0-.28a1.4,1.4,0,0,0,.09-.48l0,0a1.44,1.44,0,0,0,.27-.42c.08-.18.29-.33.31-.53a1.61,1.61,0,0,0-.15-.58,2.21,2.21,0,0,0-.11-.42c0-.11,0-.23,0-.35s.11-.37.07-.54c0,0,0,0,0,0h0a1.79,1.79,0,0,0,.33-.47,2,2,0,0,0,.12-.57,2.13,2.13,0,0,0,0-.6l0,0a2,2,0,0,0,.14-.53,2.09,2.09,0,0,0,0-.59l0-.07c0-.15,0-.33,0-.49a1.52,1.52,0,0,0,0-.55,1.68,1.68,0,0,0-.13-.54,1.64,1.64,0,0,1-.07-.18,1.53,1.53,0,0,0,.13-.46,1.36,1.36,0,0,0-.12-.46l0,0c.11-.13.26-.22.33-.37a1.68,1.68,0,0,0,.06-.5,1.46,1.46,0,0,0,0-.5l0-.11a1.43,1.43,0,0,0,.21-.47,1.66,1.66,0,0,0,0-.53c0-.11,0-.21-.06-.31A3,3,0,0,1,87,40.8a2.06,2.06,0,0,0,.22-.5,1.85,1.85,0,0,0-.11-.54,1.76,1.76,0,0,0-.15-.52,2.09,2.09,0,0,0-.26-.33c0-.12-.08-.24-.11-.37a1.65,1.65,0,0,0-.15-.53s0,0-.07-.07l0-.13a1.81,1.81,0,0,0,0-.55c0-.17-.22-.29-.31-.45a1.54,1.54,0,0,0-.3-.42l-.07-.06a.74.74,0,0,0,.11-.4c0-.21-.2-.37-.29-.55a2,2,0,0,0-.3-.51,1.45,1.45,0,0,0-.47-.24s0,0,0,0a1.48,1.48,0,0,0-.22-.44,1.49,1.49,0,0,0-.22-.44,6.51,6.51,0,0,0-.88-.42,1.32,1.32,0,0,0-.47,0,1.39,1.39,0,0,0-.1-.13,1.47,1.47,0,0,0-.42-.21,1.75,1.75,0,0,0-.42-.22,1,1,0,0,0-.27,0h0c-.12-.13-.17-.33-.31-.42a1.89,1.89,0,0,0-.5-.17.61.61,0,0,0-.33.06,1,1,0,0,0-.19-.27,1.7,1.7,0,0,0-.43-.34,1.86,1.86,0,0,0-.5-.26,2,2,0,0,0-.57,0,1.76,1.76,0,0,0-.55.11.65.65,0,0,0-.19.15,1.1,1.1,0,0,0-.31-.15,1.76,1.76,0,0,0-.5,0,3.53,3.53,0,0,0-.42,0,.9.9,0,0,0-.24-.14,1.53,1.53,0,0,0-.47,0,1.9,1.9,0,0,0-.48,0,2,2,0,0,0-.4.26l-.06,0a1.29,1.29,0,0,0-.31-.12c-.16,0-.32-.2-.49-.19a1,1,0,0,0-.42.18l-.22-.12c-.16-.07-.37,0-.54,0a1.33,1.33,0,0,0-.31,0,.84.84,0,0,0-.22-.23,2.1,2.1,0,0,0-.57-.15,1.9,1.9,0,0,0-.59-.11,1.71,1.71,0,0,0-.58.13,3.31,3.31,0,0,0-.42.19,1.85,1.85,0,0,0-.3,0h-.17a.88.88,0,0,0-.18-.12,1.93,1.93,0,0,0-.62-.1,2,2,0,0,0-.62,0,1.17,1.17,0,0,0-.41.22c-.15,0-.32,0-.46,0a1.81,1.81,0,0,0-.55-.06.78.78,0,0,0-.23.09,1.72,1.72,0,0,0-.51-.24,2,2,0,0,0-.6-.15,2,2,0,0,0-.59.19c-.12,0-.25.09-.37.15a.84.84,0,0,0-.36-.15,2.24,2.24,0,0,0-.62.11c-.15,0-.24.19-.34.3l-.16,0a1.59,1.59,0,0,0-.51-.17,1.8,1.8,0,0,0-.55,0l-.33.09a1.38,1.38,0,0,0-.33-.12,1.86,1.86,0,0,0-.56,0,2,2,0,0,0-.55.14.61.61,0,0,0-.22.25h0c0-.08-.06-.16-.07-.24a1.29,1.29,0,0,0-.11-.43l0,0v0a.3.3,0,0,0,.2-.06.44.44,0,0,0,.12-.17h.12c.13,0,.22-.17.34-.24a1.17,1.17,0,0,0,.31-.23,1.55,1.55,0,0,0,.2-.31,1,1,0,0,0,.34-.14,1.58,1.58,0,0,0,.24-.33.71.71,0,0,1,.07-.08.36.36,0,0,0,.21,0c.14-.07.21-.22.31-.33a1.17,1.17,0,0,0,.29-.32.55.55,0,0,0,.06-.22,1.28,1.28,0,0,0,.2-.16.85.85,0,0,0,.13-.32l.12,0a1.39,1.39,0,0,0,.39-.17c.11-.09.12-.27.2-.39l.11-.2a.59.59,0,0,0,.16-.07c.12-.08.18-.23.28-.35s.27-.19.32-.33a1.56,1.56,0,0,0,.08-.42,1.4,1.4,0,0,0,.27-.32c.07-.13,0-.29,0-.43a1.49,1.49,0,0,0,0-.38l0,0a1.67,1.67,0,0,0,.21-.28l0,0c.12-.06.17-.23.27-.33a1.2,1.2,0,0,0,.25-.32,1.07,1.07,0,0,0,.13-.38,1.46,1.46,0,0,0,.07-.42.41.41,0,0,0,0-.11s.11-.07.13-.13a1.44,1.44,0,0,0,.12-.42,1,1,0,0,0-.09-.37l.12-.17a1.27,1.27,0,0,0,.13-.36,1.42,1.42,0,0,0,.07-.4.78.78,0,0,0-.07-.22.51.51,0,0,0,.2-.21,1.42,1.42,0,0,0,0-.42,1.69,1.69,0,0,0,0-.35.74.74,0,0,0,.15-.16,1.38,1.38,0,0,0,.16-.37A1.49,1.49,0,0,0,67.4,19c0-.14-.13-.24-.18-.37a.9.9,0,0,1,0-.11.44.44,0,0,0,.07-.12,1.24,1.24,0,0,0,0-.39,1.2,1.2,0,0,0,0-.38,1.34,1.34,0,0,0-.14-.31.57.57,0,0,0,.1-.26,1.4,1.4,0,0,0-.08-.37.9.9,0,0,0,.15-.21,1.4,1.4,0,0,0,.06-.46,1.48,1.48,0,0,0,.07-.46,1.86,1.86,0,0,0-.2-.41,2.5,2.5,0,0,0-.17-.29,1.44,1.44,0,0,0,0-.26,1,1,0,0,0-.1-.33l0,0c0-.11,0-.24.06-.35a1.64,1.64,0,0,0,.1-.44,1.58,1.58,0,0,0-.16-.41,1.51,1.51,0,0,0-.2-.4l-.07-.07c0-.09,0-.18-.07-.27a1.4,1.4,0,0,0-.09-.37.35.35,0,0,0-.09-.1,1.27,1.27,0,0,0,0-.35A1.28,1.28,0,0,0,66.3,11a1.22,1.22,0,0,0-.28-.33l-.15-.16s0,0,0,0a1.13,1.13,0,0,0-.08-.41c-.06-.12-.21-.17-.3-.27l-.12-.13a.67.67,0,0,0,0-.31c0-.15-.2-.23-.28-.34L65.05,9a1.32,1.32,0,0,0,0-.25,1.34,1.34,0,0,0-.22-.37,1.27,1.27,0,0,0-.22-.38,1.23,1.23,0,0,0-.39-.18l-.06,0,0,0c0-.12-.19-.19-.27-.29a1.72,1.72,0,0,0-.21-.21c0-.09-.07-.18-.1-.28a1.43,1.43,0,0,0-.14-.38,1.22,1.22,0,0,0-.29-.29,1.78,1.78,0,0,0-.25-.18s0-.07,0-.09a1.35,1.35,0,0,0-.31-.26,1.25,1.25,0,0,0-.33-.22.64.64,0,0,0-.28,0,.9.9,0,0,0-.14-.2.57.57,0,0,0-.2-.11s0-.07,0-.1-.16-.24-.25-.36-.13-.28-.24-.36a1.11,1.11,0,0,0-.41-.15,1.84,1.84,0,0,0-.34-.11L60.25,4A1.06,1.06,0,0,0,60,3.81a.57.57,0,0,0-.24,0,.61.61,0,0,0-.11-.2,1.06,1.06,0,0,0-.26-.24A1.1,1.1,0,0,0,59,3.16a.49.49,0,0,0-.24,0v0a1.46,1.46,0,0,0-.31-.24.54.54,0,0,0-.3,0c-.07-.1-.15-.18-.23-.29s-.14-.3-.26-.38A1.45,1.45,0,0,0,57.28,2c-.14,0-.29.07-.44.08l-.07,0A1.11,1.11,0,0,0,56.51,2a1.35,1.35,0,0,0-.33-.11l0-.06a1.3,1.3,0,0,0-.37-.24,1.46,1.46,0,0,0-.38-.24,1.37,1.37,0,0,0-.44,0h-.18l-.1,0c-.11,0-.25,0-.37,0a.89.89,0,0,0-.36,0h0l-.15-.07-.19-.13L53.37,1A1.52,1.52,0,0,0,53.1.59a1.45,1.45,0,0,0-.42-.15,1.75,1.75,0,0,0-.43-.11,1.4,1.4,0,0,0-.45.08l-.2.07h-.29a1.31,1.31,0,0,0-.36,0l0,0h0a1.44,1.44,0,0,0-.37-.12c-.12,0-.24.08-.37.1l-.07,0L50,.47A1.31,1.31,0,0,0,49.69.2a1.19,1.19,0,0,0-.42,0,1.26,1.26,0,0,0-.42,0,1.19,1.19,0,0,0-.37.21h0l-.13,0A1,1,0,0,0,48,.22a.84.84,0,0,0-.33.12.31.31,0,0,0-.12-.09,1.09,1.09,0,0,0-.35-.11,1.16,1.16,0,0,0-.37,0,.42.42,0,0,0-.18.12.85.85,0,0,0-.28-.18A1.2,1.2,0,0,0,45.93,0a1.46,1.46,0,0,0-.42,0c-.11,0-.19.16-.28.25A.73.73,0,0,0,45,.21c-.11,0-.22.1-.34.13a1.16,1.16,0,0,0-.32.12l-.06.06c-.11,0-.2,0-.32,0S43.69.4,43.56.44a1.32,1.32,0,0,0-.37.18.47.47,0,0,0-.15.2l-.15,0a1.23,1.23,0,0,0-.34-.08,1.34,1.34,0,0,0-.32.14A1.48,1.48,0,0,0,42,1h0a1,1,0,0,0-.33.06,1.07,1.07,0,0,0-.33.08,1.4,1.4,0,0,0-.17.14h0a1,1,0,0,0-.33,0,1.25,1.25,0,0,0-.35,0,.59.59,0,0,0-.19.19l-.19,0a1.42,1.42,0,0,0-.36-.08,1.35,1.35,0,0,0-.33.15,1.11,1.11,0,0,0-.32.18l-.09.11h0a1.2,1.2,0,0,0-.34,0,1.11,1.11,0,0,0-.29.2h-.19a1.19,1.19,0,0,0-.42,0,1.25,1.25,0,0,0-.38.17,1.09,1.09,0,0,0-.34.26.44.44,0,0,0-.07.2,1.2,1.2,0,0,0-.38.1.85.85,0,0,0-.12.12.83.83,0,0,0-.32,0,1.32,1.32,0,0,0-.37.24,1.35,1.35,0,0,0-.33.28.42.42,0,0,0-.07.16h-.1a1.13,1.13,0,0,0-.29.2,1.5,1.5,0,0,0-.25.2,1,1,0,0,0-.37,0,1.29,1.29,0,0,0-.38.19,1.23,1.23,0,0,0-.35.26,1.47,1.47,0,0,0-.16.42l-.07.2-.16.11c-.1.08-.1.24-.17.36l0,.1c-.1,0-.19.11-.28.15a1.31,1.31,0,0,0-.36.2.69.69,0,0,0-.15.26,1.73,1.73,0,0,0-.38.2,1.31,1.31,0,0,0-.37.21,1.36,1.36,0,0,0-.22.4,1.22,1.22,0,0,0-.21.39s0,0,0,.06a1,1,0,0,0-.16.15,1.43,1.43,0,0,0-.26.37,1.42,1.42,0,0,0,0,.46s0,.08,0,.11l0,0a1,1,0,0,0-.25.24,1.65,1.65,0,0,0-.1.34s0,0,0,.06h0a1.1,1.1,0,0,0-.24.3,1.4,1.4,0,0,0-.21.33,1.62,1.62,0,0,0,0,.4c0,.1,0,.2,0,.31a1.74,1.74,0,0,0-.15.2,1.77,1.77,0,0,0-.14.34s0,0,0,.07a1,1,0,0,0-.29.24,1.49,1.49,0,0,0-.25.34c0,.12,0,.29,0,.42a.31.31,0,0,1,0,.09,1,1,0,0,0-.2.25,1.45,1.45,0,0,0-.15.39,1.6,1.6,0,0,0-.07.42,1.17,1.17,0,0,0,.1.29.83.83,0,0,0-.13.24c0,.12,0,.27,0,.4a1,1,0,0,0,0,.37s0,0,0,0,0,0,0,.06a1,1,0,0,0-.07.36,1.06,1.06,0,0,0,0,.36,1.24,1.24,0,0,0,.15.32l0,0a1.08,1.08,0,0,0-.15.31,1.19,1.19,0,0,0,0,.37c0,.12-.06.27,0,.38a.85.85,0,0,0,.15.26.86.86,0,0,0-.11.27.44.44,0,0,0,0,.18l-.13.13a1.49,1.49,0,0,0-.15.43,1.33,1.33,0,0,0-.15.42A1.39,1.39,0,0,0,28,19a1.68,1.68,0,0,0,.15.43,1.06,1.06,0,0,0,.15.18,1.15,1.15,0,0,0,0,.25,1.36,1.36,0,0,0,0,.41,1.4,1.4,0,0,0,.13.41l0,0a.92.92,0,0,0-.07.2,1.82,1.82,0,0,0,0,.46c0,.15.18.25.24.39a1.56,1.56,0,0,0,.24.37l.07,0a1.91,1.91,0,0,0,.15.37,1.24,1.24,0,0,0,.16.4,1.33,1.33,0,0,0,.35.24l.06,0h0s0,0,0,0a1.36,1.36,0,0,0-.17.42c0,.15.09.3.11.45a1.48,1.48,0,0,0,.11.42,1.43,1.43,0,0,0,.25.36,1.63,1.63,0,0,0,.32.31.44.44,0,0,0,.15,0v0a1.47,1.47,0,0,0,.14.37,1.37,1.37,0,0,0,.33.23l.25.15.12.18c.07.1.22.11.32.18h0a.12.12,0,0,0,0,.07,1.16,1.16,0,0,0,.15.33,1.4,1.4,0,0,0,.16.31l.13.11s0,0,0,.08a1.17,1.17,0,0,0,.2.37,1.49,1.49,0,0,0,.2.37,1.45,1.45,0,0,0,.37.18,1.6,1.6,0,0,0,.28.12.6.6,0,0,0,.11.19,1,1,0,0,0,.29.24,1.26,1.26,0,0,0,.18.1.38.38,0,0,0,0,.17,1.4,1.4,0,0,0,.26.28c.09.07.24,0,.35.09a1.16,1.16,0,0,0,0,.18,1.28,1.28,0,0,0,.13.4c.07.11.24.14.34.22a1.18,1.18,0,0,0,.32.2,1,1,0,0,0,.26,0,1.13,1.13,0,0,0,.27.25.49.49,0,0,0,.27.07v0a1,1,0,0,0,0,.19s0,0,0,0a.12.12,0,0,0-.06,0l0,.07a1.77,1.77,0,0,0-.5-.08,1.62,1.62,0,0,0-.59,0,.35.35,0,0,0-.15.1,1.53,1.53,0,0,0-.5-.12,2,2,0,0,0-.54.17c-.19.06-.42,0-.57.12l-.26,0h-.17a1.57,1.57,0,0,0-.38-.2c-.19-.07-.35-.28-.56-.29s-.4.14-.59.19a1.91,1.91,0,0,0-.57.21s0,0-.06.07-.27.13-.42.16l-.07,0a.93.93,0,0,0-.24-.29A1.64,1.64,0,0,0,29,31.1a1.88,1.88,0,0,0-.55-.12,2.15,2.15,0,0,0-.56.11,2.22,2.22,0,0,0-.53.24l0,.06H27a.51.51,0,0,0-.1-.09,1.88,1.88,0,0,0-.54-.2,1.85,1.85,0,0,0-.59-.08c-.2,0-.33.21-.51.3a2.34,2.34,0,0,0-.28.15,1.4,1.4,0,0,0-.37-.07l-.12,0a2.5,2.5,0,0,0-.46-.25c-.2-.07-.42,0-.63,0a1.78,1.78,0,0,0-.59,0,.76.76,0,0,1-.2,0c-.17-.09-.32-.25-.5-.27a2.25,2.25,0,0,0-.62.06.61.61,0,0,0-.24.15,1.3,1.3,0,0,0-.38-.15,2.07,2.07,0,0,0-.59.07,1.94,1.94,0,0,0-.58.07.7.7,0,0,0-.23.18.41.41,0,0,0-.12-.06,1.65,1.65,0,0,0-.52.06H18.8l0,0c-.15-.09-.35,0-.52-.07a1.37,1.37,0,0,0-.48-.06,1.38,1.38,0,0,0-.49.11,1.82,1.82,0,0,0-.46.2h0a1.09,1.09,0,0,0-.37-.08,1.66,1.66,0,0,0-.5.15c-.17.06-.39,0-.54.11a1.67,1.67,0,0,0-.21.2l-.36.08a1.73,1.73,0,0,0-.55.14,1.82,1.82,0,0,0-.46.36l-.12.12a1.22,1.22,0,0,0-.38,0,1.65,1.65,0,0,0-.49.17,3.55,3.55,0,0,0-.33.2.79.79,0,0,0-.2,0,2,2,0,0,0-.49.22c-.18.08-.41.07-.54.19a1.84,1.84,0,0,0-.33.45c-.09.15,0,.37-.06.55a1.55,1.55,0,0,0,0,.33.76.76,0,0,0-.32.15,1.54,1.54,0,0,0-.26.4,1.85,1.85,0,0,0-.21.39l-.19.08c-.16.11-.2.37-.33.53a1.76,1.76,0,0,0-.3.49,1.62,1.62,0,0,0-.11.58,2.53,2.53,0,0,0,0,.55,1.57,1.57,0,0,0-.21.4,1.79,1.79,0,0,0-.15.49.47.47,0,0,0,0,.15A.38.38,0,0,0,8.6,39a1.71,1.71,0,0,0-.19.53,1.71,1.71,0,0,0-.16.51,1.76,1.76,0,0,0,.14.52,1.63,1.63,0,0,0,.13.52.93.93,0,0,0,.15.15.64.64,0,0,0-.12.3,1.9,1.9,0,0,0,.09.53c0,.16.23.25.33.37a.46.46,0,0,1,0,.11c0,.18-.2.34-.18.51a1.7,1.7,0,0,0,.14.53.29.29,0,0,0,.11.14c0,.13,0,.26-.07.41a2.05,2.05,0,0,0-.06.54,2,2,0,0,0,.14.49L9,45.33a1.91,1.91,0,0,0-.15.54c0,.18.15.34.2.52a1.56,1.56,0,0,0,.2.48l.15.2a1.75,1.75,0,0,0,.12.45l0,.08a.78.78,0,0,0-.15.17,2,2,0,0,0-.1.55,1.85,1.85,0,0,0,0,.55,1.49,1.49,0,0,0,.16.53c.07.12.13.25.2.37a1.91,1.91,0,0,0,.11.53.49.49,0,0,0,.17.22l0,.08a1.91,1.91,0,0,0-.24.55,1.86,1.86,0,0,0,0,.6,2.21,2.21,0,0,0,.13.6l0,0s0,0,0,0c0,.21-.17.42-.14.61a2.36,2.36,0,0,0,.22.58c.08.15.27.22.42.32a.19.19,0,0,0,0,.07,1.73,1.73,0,0,0,.19.48l0,.15a1.23,1.23,0,0,0-.12.23,1.85,1.85,0,0,0,0,.56c0,.2-.11.4-.06.58a1.39,1.39,0,0,1,0,.33,1.72,1.72,0,0,0-.07.58,1.46,1.46,0,0,0,.12.57c0,.11.07.21.11.31a1.47,1.47,0,0,1,0,.27,1.9,1.9,0,0,0,0,.57,1.84,1.84,0,0,0,.16.55,2.1,2.1,0,0,0,.27.52l.1.07a1,1,0,0,0-.06.38,1.54,1.54,0,0,0,.2.44,2.72,2.72,0,0,0,.15.31,1.55,1.55,0,0,0,0,.39c0,.18-.12.38-.06.56h0a1.74,1.74,0,0,0-.16.53,1.87,1.87,0,0,0,0,.56h0c-.19,0-.41-.08-.59,0l0,0a.67.67,0,0,0-.24-.13,1.61,1.61,0,0,0-.52,0,1.53,1.53,0,0,0-.51.06.74.74,0,0,0-.11.06l-.08,0a1.46,1.46,0,0,0-.53,0,1.71,1.71,0,0,1-.36-.13,2.1,2.1,0,0,0-.55-.24,2,2,0,0,0-.61,0,2.21,2.21,0,0,0-.63.08,1.77,1.77,0,0,0-.43.35c-.15,0-.3.1-.46.12a1.39,1.39,0,0,0-.43.13c-.14.07-.34,0-.46.17a.44.44,0,0,0-.06.11h0a1.66,1.66,0,0,0-.49,0,1.57,1.57,0,0,0-.43.23L3,63.82h0a1.89,1.89,0,0,0-.56,0c-.18,0-.3.24-.47.33a1.53,1.53,0,0,0-.43.3,2,2,0,0,0-.31.44,2.12,2.12,0,0,0-.22.5s0,0,0,0l-.15.1c-.16.13-.18.38-.29.55a1.77,1.77,0,0,0-.25.53c-.06.2-.26.37-.26.59a2,2,0,0,0,.24.59,1.77,1.77,0,0,0-.21.55,2.19,2.19,0,0,0,.11.59c0,.2,0,.45.06.62a2.06,2.06,0,0,0,.4.48h0s0,0,0,.07a1.56,1.56,0,0,0,.08.55c.07.19,0,.44.12.6s.34.22.5.33a1.89,1.89,0,0,0,.5.3h.07a0,0,0,0,1,0,0c.07.15.24.24.33.37a1.51,1.51,0,0,0,.34.34,1.76,1.76,0,0,0,.46.11l.21.07a1,1,0,0,0,.18.42,2,2,0,0,0,.48.3c.17.08.38,0,.56,0a1.7,1.7,0,0,0,.41,0c.15.07.35.08.5.15a1.68,1.68,0,0,0,.56.18c.2,0,.42.21.63.17A1,1,0,0,0,7,73.78H7a1.87,1.87,0,0,0,.52,0,1.65,1.65,0,0,0,.53,0l.07,0a1.45,1.45,0,0,0,.27.07,1.7,1.7,0,0,0,.56.1.64.64,0,0,0,.21-.07l0,0a2.31,2.31,0,0,0,.59.15h0c0,.07.24,0,.32,0s.34,0,.58,0c-.07,0,.28,0,.35,0a1.48,1.48,0,0,1,.54,0,5.89,5.89,0,0,0,.71.1c.41,0,.6.27,1,0,0,0,.4-.07.64-.13,0,0,.2,0,.22,0,.18-.14.3.14.43-.05s.41-.06.47-.17l.13-.08h0a1,1,0,0,0,.43,0l0,0a2.2,2.2,0,0,0,.57.33c.2.07.43,0,.64,0a1.81,1.81,0,0,0,.59,0c.2-.06.47,0,.65-.08a.83.83,0,0,0,.26-.29h0a1.41,1.41,0,0,0,.46-.11.38.38,0,0,1,.14,0,1.62,1.62,0,0,0,.41.21c.16.07.37,0,.55,0a1.77,1.77,0,0,0,.5,0,1.1,1.1,0,0,1,.28,0,1.69,1.69,0,0,0,.33.11c.17,0,.34.2.53.18s.33-.18.5-.25l.27-.12a1.93,1.93,0,0,0,.44.11c.19,0,.38.16.57.11l0,0a1.29,1.29,0,0,0,.42.21,1.68,1.68,0,0,0,.6,0,1.82,1.82,0,0,0,.59-.11.8.8,0,0,0,.19-.14h0a1.75,1.75,0,0,0,.54.11c.17,0,.33-.15.5-.2a1.07,1.07,0,0,0,.24-.08l0,0a1.71,1.71,0,0,0,.5.23,2.08,2.08,0,0,0,.55-.07,3.12,3.12,0,0,0,.47-.06l.07,0a1.65,1.65,0,0,0,.5.13,1.66,1.66,0,0,0,.5-.16l.3-.08.13,0a2.59,2.59,0,0,0,.4.1.54.54,0,0,0,.16.2,2.08,2.08,0,0,0,.59.21,2,2,0,0,0,.59.15,2,2,0,0,0,.62-.08,4.43,4.43,0,0,0,.42-.15,1.29,1.29,0,0,0,.5,0,1,1,0,0,0,.25-.11c.17.07.38,0,.57,0a2.14,2.14,0,0,0,.56,0,1.73,1.73,0,0,0,.54-.17l.27-.12a.78.78,0,0,0,.33.09,1.61,1.61,0,0,0,.47-.12l.15,0a2.57,2.57,0,0,0,.45.09c.17,0,.33.17.5.15a1.64,1.64,0,0,0,.43-.13,1.59,1.59,0,0,0,.45.2c.2,0,.37.24.59.23s.38-.17.57-.24l.27-.11a.58.58,0,0,0,.2.06,1.7,1.7,0,0,0,.55-.12h0a1.7,1.7,0,0,0,.37.14c.2,0,.4.24.61.22a1.76,1.76,0,0,0,.59-.28,3.25,3.25,0,0,0,.42-.2c.15.07.29.2.45.19a1.44,1.44,0,0,0,.49-.19.78.78,0,0,0,.16.1,1.78,1.78,0,0,0,.55,0,1.59,1.59,0,0,0,.55,0,1,1,0,0,0,.33-.17h.16a1.47,1.47,0,0,0,.46,0,1.32,1.32,0,0,0,.44-.14l0,0c.15.1.25.33.44.37a1.91,1.91,0,0,0,.57,0l.19,0a.61.61,0,0,0,.24.25,2.17,2.17,0,0,0,.65,0,2,2,0,0,0,.63,0,2.27,2.27,0,0,0,.54-.32l.06,0a.34.34,0,0,0,.13,0c.17,0,.33-.14.49-.18a2.21,2.21,0,0,0,.33-.11.31.31,0,0,0,.11.1,1.65,1.65,0,0,0,.53.06,1.56,1.56,0,0,0,.51,0,.69.69,0,0,0,.16-.07l.11,0a1.79,1.79,0,0,0,.5.25,1.6,1.6,0,0,0,.55,0,2.88,2.88,0,0,0,.46-.07,1.58,1.58,0,0,0,.39.13,2,2,0,0,0,.6.11,1.86,1.86,0,0,0,.58-.23,2.93,2.93,0,0,0,.36-.18,1.36,1.36,0,0,0,.46.13,1.66,1.66,0,0,0,.51-.14l.24,0a.8.8,0,0,0,.34.17,1.68,1.68,0,0,0,.57-.07c.17,0,.28-.22.42-.33.15.08.28.23.43.24a2,2,0,0,0,.54,0,.6.6,0,0,0,.24-.15h0a2.09,2.09,0,0,0,.55.15,1.8,1.8,0,0,0,.53.13.78.78,0,0,0,.33-.09s.07.07.11.09a2,2,0,0,0,.58.12,1.74,1.74,0,0,0,.58.06,1.85,1.85,0,0,0,.53-.25l.09,0a.82.82,0,0,0,.27.13,1.77,1.77,0,0,0,.59,0,3.06,3.06,0,0,0,.47,0l.06,0a1.76,1.76,0,0,0,.55.18,1.67,1.67,0,0,0,.59.07,1.27,1.27,0,0,0,.46-.2l.07,0c.18.08.41,0,.61,0a1.62,1.62,0,0,0,1-.2,1.2,1.2,0,0,0,.33.09,1.77,1.77,0,0,0,.55,0l.11,0,.11,0a1.73,1.73,0,0,0,.55.14c.2,0,.41.18.61.13a1.65,1.65,0,0,0,.48-.3.61.61,0,0,0,.31.15c.2,0,.39-.12.58-.17a1.78,1.78,0,0,0,.55-.19.5.5,0,0,0,.13-.13.93.93,0,0,0,.38.13,1.68,1.68,0,0,0,.46-.11l.07,0,.09,0a1.69,1.69,0,0,0,.5.25,1.91,1.91,0,0,0,.56,0,1.84,1.84,0,0,1,.37,0c.15.06.31.07.44.11a1.92,1.92,0,0,0,.55.15,1,1,0,0,0,.3-.07.71.71,0,0,0,.2.12,2,2,0,0,0,.62.07,1.92,1.92,0,0,0,.61,0,2,2,0,0,0,.53-.33c.15-.09.33-.12.47-.21a.48.48,0,0,0,.28,0,1.46,1.46,0,0,0,.4-.18,3,3,0,0,0,.39,0l.22.06a1,1,0,0,0,.29.22,2,2,0,0,0,.6.09c.21,0,.42.19.62.15a1.67,1.67,0,0,0,.47-.17.9.9,0,0,1,.09.14,2.35,2.35,0,0,0,.44.37c.33.19.51,0,.87-.14a1.11,1.11,0,0,1,.68,0c.93.26.35,0,1.48.16a2.66,2.66,0,0,0,1.2,0c.25-.17.39-.36.39-.48l.27,0c.2,0,.44,0,.62-.07a.76.76,0,0,0,.11-.12h.07c.19,0,.37.17.55.15l.2,0a.67.67,0,0,0,.12.09,1.59,1.59,0,0,0,.52.18,1.94,1.94,0,0,0,.57.06.9.9,0,0,0,.35-.22.91.91,0,0,0,.35.19,2,2,0,0,0,.62,0l.33,0,.18.07a1.79,1.79,0,0,0,.56.15c.19,0,.35-.17.54-.23a1.66,1.66,0,0,0,.49-.23,1.75,1.75,0,0,0,.4-.37l.12-.15a.69.69,0,0,0,.37.07,1.57,1.57,0,0,0,.44-.29,1.53,1.53,0,0,0,.42-.29l0,0a.88.88,0,0,0,.25,0c.19,0,.3-.24.46-.34a1.47,1.47,0,0,0,.42-.33,1.45,1.45,0,0,0,.29-.46l.07-.13h0c.16-.1.24-.29.37-.43s.35-.24.42-.42a2.15,2.15,0,0,0,.12-.59c0-.2-.15-.37-.2-.55A.6.6,0,0,0,95.81,69.19ZM52.42,24.6a1.47,1.47,0,0,0-.11.42l0,.18a.53.53,0,0,0-.13.14.76.76,0,0,0-.07.32l-.14.06a1.38,1.38,0,0,0-.35.25c-.09.11-.07.29-.12.42a1.48,1.48,0,0,0-.09.31.51.51,0,0,0-.23.12,1.48,1.48,0,0,0-.24.41c-.07.14,0,.32,0,.47a.7.7,0,0,0,0,.13l0,0a1.43,1.43,0,0,0-.19.35c-.07.13-.21.22-.24.36a1.23,1.23,0,0,0,0,.42.54.54,0,0,0,0,.1.66.66,0,0,0-.14.2,1.68,1.68,0,0,0,0,.41,1.2,1.2,0,0,0,0,.42,1.16,1.16,0,0,0,.19.36,2.7,2.7,0,0,0,.15.26,1,1,0,0,0,.07.38l0,.13h0a1.42,1.42,0,0,0-.27.15l-.16,0a1.64,1.64,0,0,0-.45,0,2.42,2.42,0,0,0-.59-.22,2,2,0,0,0-.59-.19,1.86,1.86,0,0,0-.61.15,2.23,2.23,0,0,0-.6.14l-.11,0c-.17,0-.36.11-.54.13a1.43,1.43,0,0,0-.33.07,1.57,1.57,0,0,0-.43-.25,1.8,1.8,0,0,0-.55,0H45.4v0a1.1,1.1,0,0,0,.2-.23,1.56,1.56,0,0,0,.1-.46c0-.15.16-.3.15-.46a1.37,1.37,0,0,0,0-.24,1.66,1.66,0,0,0,.11-.32c0-.15-.08-.31-.09-.46a1.35,1.35,0,0,0-.11-.42c-.06-.14,0-.33-.12-.46a1.59,1.59,0,0,0-.4-.22l-.07,0a.38.38,0,0,0,0-.12.75.75,0,0,0-.18-.18.46.46,0,0,1,0-.15,1.3,1.3,0,0,0-.06-.39c0-.13,0-.31-.08-.43a.64.64,0,0,0-.2-.15.45.45,0,0,0,0-.11,1.4,1.4,0,0,0-.11-.42,1.46,1.46,0,0,0-.2-.41.67.67,0,0,0-.08-.07l0-.09a1.33,1.33,0,0,0-.1-.42,1.21,1.21,0,0,0-.23-.37,1.47,1.47,0,0,0-.3-.33.88.88,0,0,0-.33-.09c-.07-.13-.26-.17-.37-.28a1.15,1.15,0,0,0-.35-.24c-.14-.07-.25-.24-.41-.25l-.09,0-.17-.15a1.14,1.14,0,0,0-.32-.25,1.07,1.07,0,0,0-.38-.11h0a.64.64,0,0,0-.15-.29,1.34,1.34,0,0,0-.39-.11l-.22-.07a.78.78,0,0,0-.1-.2,1.27,1.27,0,0,0-.26-.25,1.2,1.2,0,0,0-.32-.2s-.06,0-.08,0a1.5,1.5,0,0,0-.2-.25c-.08-.1-.12-.23-.23-.3l-.07,0a.22.22,0,0,0,0-.07,1.34,1.34,0,0,0-.2-.42c-.08-.13-.26-.16-.37-.26l-.18-.13a.72.72,0,0,0,0-.13,1.3,1.3,0,0,0-.13-.39.75.75,0,0,0-.2-.19,1.36,1.36,0,0,0,0-.41,1.14,1.14,0,0,0-.24-.36l-.07-.11a.57.57,0,0,0,0-.16,1.33,1.33,0,0,0-.11-.4.16.16,0,0,1,0-.07s0,0,0-.06a1.4,1.4,0,0,0,0-.45,1.48,1.48,0,0,0,0-.46h0a1.84,1.84,0,0,0,0-.37c0-.15.1-.3.06-.44a1.33,1.33,0,0,0-.19-.39s0,0-.07-.06,0-.06,0-.1.14-.24.12-.37l0,0,.08-.2a1.37,1.37,0,0,0,.14-.34s0,0,0-.07a1.13,1.13,0,0,0,.3-.25,1.3,1.3,0,0,0,.15-.43,1.47,1.47,0,0,0,.16-.43s0,0,0,0a.37.37,0,0,0,.18-.13.89.89,0,0,0,.08-.36l.06,0c.12-.06.19-.18.28-.27s.22-.15.28-.28a.53.53,0,0,0,0-.12l.06,0c.12-.07.29-.07.37-.18a1.42,1.42,0,0,0,.21-.36s0,0,0-.07a1.5,1.5,0,0,0,.2-.07,1,1,0,0,0,.32-.18.88.88,0,0,0,.13-.22l.24,0c.12,0,.25,0,.36,0a1.3,1.3,0,0,0,.29-.23.63.63,0,0,0,.11-.28h.18c.11,0,.24.06.35,0s.16-.17.24-.25l.07,0c.11,0,.24.11.37.07a.62.62,0,0,0,.24-.16h0c.12,0,.24.15.37.15a1.2,1.2,0,0,0,.38-.09.34.34,0,0,0,.08-.07,1.23,1.23,0,0,0,.26.08,1.48,1.48,0,0,0,.42,0,1.46,1.46,0,0,0,.42-.1.65.65,0,0,0,.11-.1.9.9,0,0,1,.2,0,1,1,0,0,0,.38,0l.08,0a.7.7,0,0,0,.19.11,1.88,1.88,0,0,0,.89,0c.14,0,.21-.23.33-.32l.11-.09a.38.38,0,0,0,.16,0l.19,0a.85.85,0,0,0,.25.15,1.37,1.37,0,0,0,.41,0c.15,0,.3.08.43,0a1,1,0,0,0,.3-.17.52.52,0,0,0,.21.08.47.47,0,0,0,.21,0,.39.39,0,0,0,.08.14c.11.08.26.07.38.11a1.23,1.23,0,0,0,.37.11.69.69,0,0,0,.25-.07l0,0c.13.07.23.24.38.27a1.37,1.37,0,0,0,.44-.09l.11,0a.59.59,0,0,0,.19.16,1.12,1.12,0,0,0,.35.12l.17,0a.81.81,0,0,0,.14.15,1.3,1.3,0,0,0,.4.15,1.18,1.18,0,0,0,.4.15.67.67,0,0,0,.24-.06.58.58,0,0,1,.12.07,1.2,1.2,0,0,0,.33.18,1,1,0,0,0,.33.06l.07,0a1.21,1.21,0,0,0,.29.24,1.32,1.32,0,0,0,.34.12h0a.86.86,0,0,0,.27.21,1.19,1.19,0,0,0,.29.17.44.44,0,0,0,.15,0,1.3,1.3,0,0,0,.17.26.32.32,0,0,1,.07.11,1.85,1.85,0,0,0,.15.39c.07.14.24.18.34.29a1.07,1.07,0,0,0,.33.24c.12.07.22.23.37.25a.5.5,0,0,0,.12.24.46.46,0,0,0,.2.08,1.34,1.34,0,0,0,0,.25,1.38,1.38,0,0,0,.11.37.4.4,0,0,0,0,.1,2.69,2.69,0,0,0,0,.36c0,.16-.06.34,0,.48a1.57,1.57,0,0,0,.25.4.39.39,0,0,0,.14.08.48.48,0,0,0,0,.19,1.14,1.14,0,0,0,.15.34,1.32,1.32,0,0,0,.17.29s0,.06,0,.1-.14.24-.12.37,0,0,0,.07a.67.67,0,0,0-.1.16,1.61,1.61,0,0,0,0,.45c0,.15-.11.31-.08.46a1.24,1.24,0,0,0,.07.23.89.89,0,0,0-.11.27,1.47,1.47,0,0,0,0,.37.27.27,0,0,1,0,.08.59.59,0,0,0-.19.19,1.36,1.36,0,0,0-.1.41l0,.1h0a1.35,1.35,0,0,0-.29.33,1.26,1.26,0,0,0-.08.42L57,21a1.79,1.79,0,0,0-.24.37c-.07.1-.15.17-.22.26a2.59,2.59,0,0,0-.26.19,1.18,1.18,0,0,0-.37.24,1,1,0,0,0-.15.36,1.24,1.24,0,0,0-.33.21c-.1.09-.11.26-.17.37a.79.79,0,0,0,0,.12.87.87,0,0,0-.33,0,.67.67,0,0,0-.21.16c-.11,0-.2,0-.3,0a1.38,1.38,0,0,0-.45.06c-.14,0-.23.19-.35.29a.74.74,0,0,1-.15.11h-.06a1.5,1.5,0,0,0-.42.13c-.12.07-.16.26-.26.37A1.61,1.61,0,0,0,52.42,24.6ZM64.81,63.11a2.17,2.17,0,0,0-.37-.07l-.28-.11c-.19-.09-.34-.29-.54-.32a2.3,2.3,0,0,0-.63,0,.61.61,0,0,0-.27.16,4.28,4.28,0,0,0-.46,0,1.53,1.53,0,0,0-.51-.06,1.44,1.44,0,0,0-.46.11,4.62,4.62,0,0,0-.5-.06,1.74,1.74,0,0,0-.61-.09l-.15,0a2,2,0,0,0-.17-.35.28.28,0,0,0,0-.07l0,0a.87.87,0,0,0,0-.86A1.37,1.37,0,0,0,59.7,61a1.53,1.53,0,0,0-.33-.26l0,0a.56.56,0,0,1,0-.11,2.56,2.56,0,0,0,0-.35.54.54,0,0,0,.13-.23,1.71,1.71,0,0,0,0-.46c0-.15-.16-.24-.23-.38a1.17,1.17,0,0,0-.22-.34l0-.07a.18.18,0,0,1,0-.09,1.2,1.2,0,0,0,0-.38c0-.13,0-.3,0-.42s0,0-.07-.06a.28.28,0,0,0,.06-.15.79.79,0,0,0-.09-.33.72.72,0,0,0,.13-.23c0-.14,0-.31,0-.46a1.58,1.58,0,0,0,0-.43,1.34,1.34,0,0,0-.17-.4c-.07-.11-.13-.22-.21-.32h0a1.36,1.36,0,0,0,0-.41,1.34,1.34,0,0,0-.12-.4.28.28,0,0,0-.1-.07s0-.07,0-.11a1.52,1.52,0,0,0,0-.42,1.34,1.34,0,0,0-.12-.4,1.4,1.4,0,0,0-.21-.37h0c0-.08,0-.16,0-.24a1.16,1.16,0,0,0-.06-.37.48.48,0,0,0-.12-.16s0,0,0-.06a1.2,1.2,0,0,0,0-.38c0-.14,0-.3,0-.42s-.18-.17-.27-.25a.79.79,0,0,0,0-.28,1.31,1.31,0,0,0-.11-.34l-.12-.21a1.13,1.13,0,0,1,0-.16,1.28,1.28,0,0,0,0-.35,1.07,1.07,0,0,0-.11-.33h0a.2.2,0,0,0,0-.07c0-.15.18-.29.17-.44a1.58,1.58,0,0,0-.19-.43c0-.09-.07-.18-.11-.27a1.27,1.27,0,0,0,.14-.41,1.69,1.69,0,0,0-.11-.43,1.62,1.62,0,0,0-.15-.42,1.24,1.24,0,0,0-.22-.24.88.88,0,0,0,0-.36.8.8,0,0,0-.16-.29v-.07a1.33,1.33,0,0,0,0-.85,1.81,1.81,0,0,0-.15-.42A1.12,1.12,0,0,0,56,44.8s0,0,0-.07a1.15,1.15,0,0,0-.12-.37s0,0,0,0,0-.08,0-.12a1.32,1.32,0,0,0,0-.4.89.89,0,0,0-.15-.32.69.69,0,0,0,0-.12,1.25,1.25,0,0,0,.15-.42,1.43,1.43,0,0,0,0-.46,1.47,1.47,0,0,0-.13-.46c-.07-.11-.21-.15-.33-.24s0-.15-.06-.21a1.51,1.51,0,0,0-.12-.38h0l0-.07a1.28,1.28,0,0,0,0-.43,1.29,1.29,0,0,0,0-.43,1.37,1.37,0,0,0-.22-.36s0,0,0-.06a1.47,1.47,0,0,0,0-.42A1.56,1.56,0,0,0,55,39a1.41,1.41,0,0,0-.22-.35l-.11-.12-.1-.22a2.29,2.29,0,0,1-.07-.25c0-.12.17-.24.17-.37a1.24,1.24,0,0,0-.14-.39,1.33,1.33,0,0,0-.15-.37.3.3,0,0,0,0-.09,1.61,1.61,0,0,0-.07-.44,1.45,1.45,0,0,0-.08-.42,1.47,1.47,0,0,0-.29-.31l0,0a.2.2,0,0,0,0-.09,1.15,1.15,0,0,0-.06-.37,1.66,1.66,0,0,0,0-.21,1.27,1.27,0,0,0,.07-.38,1.19,1.19,0,0,0,0-.42,1.31,1.31,0,0,0-.2-.36l-.09-.14a1.17,1.17,0,0,0,0-.37,1.12,1.12,0,0,0-.2-.37l-.07-.18c0-.1,0-.19,0-.28a1.2,1.2,0,0,0,0-.38.71.71,0,0,0-.15-.2,1.21,1.21,0,0,0,.06-.38,1.37,1.37,0,0,0-.15-.38,1.78,1.78,0,0,1-.06-.2.54.54,0,0,0,.11-.29,1.2,1.2,0,0,0-.15-.39,1.13,1.13,0,0,0-.15-.37l0,0a1.31,1.31,0,0,0,0-.31v0l0-.08a1.49,1.49,0,0,0,.17-.37s0,0,0-.07a.89.89,0,0,0,.27-.19,1.46,1.46,0,0,0,.24-.38,1.42,1.42,0,0,0,.15-.44.53.53,0,0,0-.07-.29,1.24,1.24,0,0,0,.2-.33,1.45,1.45,0,0,1,.12-.19l.07,0c.11-.08.11-.25.19-.37a1.21,1.21,0,0,0,.16-.34,1.72,1.72,0,0,1,.12-.24h0a1.45,1.45,0,0,0,.42,0,1.63,1.63,0,0,0,.37-.27,1.47,1.47,0,0,0,.33-.31.63.63,0,0,0,.08-.24h0a1.3,1.3,0,0,0,.29-.24c.09-.08.24-.11.31-.21l0-.07a1.08,1.08,0,0,0,.37,0,1.24,1.24,0,0,0,.33-.2,1.58,1.58,0,0,0,.26-.26h0a1.42,1.42,0,0,0,.37-.22,1.22,1.22,0,0,0,.34-.27,1.65,1.65,0,0,0,.16-.41h0l.07,0a1.38,1.38,0,0,0,.4-.15,1.29,1.29,0,0,0,.25-.36,1.37,1.37,0,0,0,.22-.37,1.73,1.73,0,0,0,0-.29l.1-.07a1.8,1.8,0,0,0,.3-.31,1.58,1.58,0,0,0,.1-.43c0-.11,0-.21,0-.33a.43.43,0,0,0,.07-.1,1.1,1.1,0,0,0,.09-.41c0-.14.15-.27.13-.41a1.69,1.69,0,0,0-.06-.26c.07-.09.2-.16.22-.29a1.15,1.15,0,0,0,0-.41v0a.89.89,0,0,1,.11-.14,1.87,1.87,0,0,0,.29-.33,2,2,0,0,0,0-.45,1.34,1.34,0,0,0,0-.44,1.54,1.54,0,0,0-.15-.42l-.06-.1a1,1,0,0,0,0-.28,1.29,1.29,0,0,0-.1-.36,2.18,2.18,0,0,0-.12-.28,1.51,1.51,0,0,1,0-.2,1.51,1.51,0,0,0,0-.38.77.77,0,0,0-.12-.26.75.75,0,0,0,.15-.29,1.77,1.77,0,0,0,0-.46,1.61,1.61,0,0,0-.07-.45,1.37,1.37,0,0,0-.23-.4,2,2,0,0,0-.28-.3.75.75,0,0,1,0-.12,1.41,1.41,0,0,0-.14-.37c-.07-.11-.2-.15-.29-.23L59,12.83a.6.6,0,0,0,0-.21c0-.11-.16-.18-.23-.29a1.62,1.62,0,0,0-.19-.23.27.27,0,0,0,0-.08,1.42,1.42,0,0,0-.13-.42,1.52,1.52,0,0,0-.22-.39c-.11-.11-.28-.1-.41-.16L57.65,11c-.07-.07-.15-.12-.22-.2a1.13,1.13,0,0,0-.28-.24,1,1,0,0,0-.34-.14l-.25-.06a1.1,1.1,0,0,0-.28-.19A1.07,1.07,0,0,0,56,10h0a.88.88,0,0,0-.19-.27c-.09-.1-.13-.26-.24-.33a1.56,1.56,0,0,0-.39,0h-.09a1.35,1.35,0,0,0-.26-.27c-.11-.07-.18-.24-.31-.29a1.12,1.12,0,0,0-.37,0A.78.78,0,0,0,54,8.54a1.39,1.39,0,0,0-.39-.17,1.26,1.26,0,0,0-.42-.11,1.08,1.08,0,0,0-.4.12.37.37,0,0,0-.07-.08,1.33,1.33,0,0,0-.35-.1,1.06,1.06,0,0,0-.2-.33c-.1-.11-.29-.1-.42-.17a1.16,1.16,0,0,0-.82-.15,1.5,1.5,0,0,0-.43.08l-.07.06a.47.47,0,0,0-.15,0,1,1,0,0,0-.37.1l-.07,0a.92.92,0,0,0-.29-.14,1.23,1.23,0,0,0-.34,0h0a1.51,1.51,0,0,1-.19-.12c-.11-.08-.2-.2-.34-.24a1.41,1.41,0,0,0-.42,0,1.36,1.36,0,0,0-.41,0,1.6,1.6,0,0,0-.29.15.7.7,0,0,0-.22,0,1.8,1.8,0,0,0-.3.06.7.7,0,0,0-.23-.19,1.38,1.38,0,0,0-.45,0c-.15,0-.27.15-.42.2a1.28,1.28,0,0,0-.36.2.9.9,0,0,0-.3-.06c-.13,0-.29-.1-.42,0a.33.33,0,0,0-.14.1.52.52,0,0,0-.24-.15,1.58,1.58,0,0,0-.44.11,1.49,1.49,0,0,0-.42.12.64.64,0,0,0-.2.2l-.13,0a1.18,1.18,0,0,0-.37.07l-.24.11-.17,0a.86.86,0,0,0-.35,0,1.06,1.06,0,0,0-.33.14,1.42,1.42,0,0,0-.31.22l-.07,0a1.07,1.07,0,0,0-.32.08,1.13,1.13,0,0,0-.28.2L40.62,9l-.19,0a1,1,0,0,0-.34.07,1.4,1.4,0,0,0-.29.2l-.16.19a.56.56,0,0,0-.29-.09c-.12,0-.21.14-.32.19a1.68,1.68,0,0,0-.31.2.61.61,0,0,0-.11.2.43.43,0,0,0-.2,0,1,1,0,0,0-.34.2,1,1,0,0,0-.32.22,1.13,1.13,0,0,0-.22.33v0a3.46,3.46,0,0,0-.52.53.77.77,0,0,0,0,.13h0c-.12,0-.18.21-.29.29a1.25,1.25,0,0,0-.26.29,1.31,1.31,0,0,0-.12.27.72.72,0,0,0-.14.07,1.7,1.7,0,0,0-.37.27,1.49,1.49,0,0,0-.17.42,1.44,1.44,0,0,0-.13.44,1.52,1.52,0,0,0,.11.45.36.36,0,0,1,0,.13l0,.07a1.06,1.06,0,0,0-.16.33.82.82,0,0,0,0,.24,1,1,0,0,0-.2.22c-.06.11,0,.27,0,.39a1.1,1.1,0,0,0,0,.37,1.38,1.38,0,0,0,.07.28.83.83,0,0,0-.18.25,1.78,1.78,0,0,0,0,.42c0,.1,0,.2,0,.3s-.23.19-.26.33a1.54,1.54,0,0,0,0,.47,1.37,1.37,0,0,0,.06.46.76.76,0,0,0,.2.28,1.61,1.61,0,0,0,.09.39,1.31,1.31,0,0,0,.13.37,1.84,1.84,0,0,0,0,.42,1.53,1.53,0,0,0,0,.43,1.29,1.29,0,0,0,.24.35,1.3,1.3,0,0,0,.24.34c0,.07.06.12.07.18a1.38,1.38,0,0,0,.15.37.69.69,0,0,0,.2.17,1.15,1.15,0,0,0,0,.37,1.29,1.29,0,0,0,.17.42,1.39,1.39,0,0,0,.26.38c.11.09.29.07.43.12a1.33,1.33,0,0,0,.39.11l0,.06a1,1,0,0,0,.24.28,1,1,0,0,0,.35.11l.11.06c0,.11,0,.24.09.32a1,1,0,0,0,.29.25.36.36,0,0,0,.23,0s0,.08,0,.11.2.2.28.32a1.2,1.2,0,0,0,.25.29,1.29,1.29,0,0,0,.34.19l.19.07.2.17c.11.1.16.26.29.31a.78.78,0,0,0,.15,0s0,.11.06.16a1.69,1.69,0,0,0,.26.4c.11.11.3.09.44.15a1.35,1.35,0,0,0,.28.11.85.85,0,0,1,.15.14.51.51,0,0,0,0,.18v0A1.41,1.41,0,0,0,42,27a1.14,1.14,0,0,0,.21.39.57.57,0,0,0,.2.14,1.28,1.28,0,0,1,.11.21,1.23,1.23,0,0,0,.16.37,1.18,1.18,0,0,0,.28.29l.22.17a.65.65,0,0,0,0,.07.5.5,0,0,0,0,.1,1.78,1.78,0,0,0-.07.46.42.42,0,0,0,.07.16,3.06,3.06,0,0,0-.1.39,1.85,1.85,0,0,0-.07.46,1.49,1.49,0,0,0,.11.46l0,.07a1.44,1.44,0,0,0,0,.33l-.06.07a1,1,0,0,0-.21.32,1.23,1.23,0,0,0,0,.39c0,.14-.09.28-.06.4s0,0,0,0a.34.34,0,0,0,0,.06c-.06.12-.21.22-.23.36a1.44,1.44,0,0,0,.07.42,2.62,2.62,0,0,0,.06.27,1.41,1.41,0,0,0-.2.31,1.31,1.31,0,0,0-.07.39,1.64,1.64,0,0,0,0,.4s0,0,0,0,0,0,0,.07-.18.19-.2.32a.24.24,0,0,0,0,.11l-.07.07a1.32,1.32,0,0,0-.25.31,1.1,1.1,0,0,0-.07.41c0,.14-.13.28-.11.42a1.29,1.29,0,0,0,.11.34l0,.07a1.25,1.25,0,0,0-.11.35.41.41,0,0,0,0,.1l-.06,0a1.74,1.74,0,0,0-.18.42,1.57,1.57,0,0,0-.18.42,1.44,1.44,0,0,0,.08.44v0a1.48,1.48,0,0,0-.13.25,1.29,1.29,0,0,0-.08.35.15.15,0,0,0,0,.06,1.39,1.39,0,0,0-.27.31c-.06.13,0,.31,0,.46a1.22,1.22,0,0,0,0,.42,1,1,0,0,0,.07.21l0,.07a1.75,1.75,0,0,0-.19.31,1.44,1.44,0,0,0-.06.37v0a.62.62,0,0,0-.11.14,1.13,1.13,0,0,0-.16.37,1.23,1.23,0,0,0-.1.41.72.72,0,0,0,.06.22l-.14.28a1.49,1.49,0,0,0-.2.39,1.43,1.43,0,0,0,0,.45.31.31,0,0,0,0,.09.86.86,0,0,0-.11.23,1.28,1.28,0,0,0,0,.43,1.22,1.22,0,0,1,0,.17.55.55,0,0,0-.11.12,1.38,1.38,0,0,0-.12.41,1.25,1.25,0,0,0-.07.42.49.49,0,0,0,.07.21,1,1,0,0,0-.15.17c-.07.12,0,.29,0,.43a1.08,1.08,0,0,0,0,.4.91.91,0,0,0,0,.13.93.93,0,0,0-.19.28,1.59,1.59,0,0,0,0,.4c0,.14-.1.28-.07.41l0,.14a.49.49,0,0,1,0,.1,1.76,1.76,0,0,0-.12.33.82.82,0,0,0-.23.18c-.09.11-.07.3-.13.44a1.37,1.37,0,0,0-.11.41,1.26,1.26,0,0,0,0,.43c0,.08,0,.16,0,.24a1.15,1.15,0,0,0-.17.31,1.29,1.29,0,0,0,0,.39c0,.11,0,.22,0,.32a.84.84,0,0,0-.17.27,1.18,1.18,0,0,0,0,.42,1.4,1.4,0,0,0,0,.42l0,.07a.73.73,0,0,0-.16.27,1.44,1.44,0,0,0,0,.37s0,0,0,0a.35.35,0,0,0-.14.1,1.25,1.25,0,0,0-.17.37c0,.12,0,.26,0,.39s0,0,0,0-.1.2-.16.29a1.36,1.36,0,0,0-.2.35,1.33,1.33,0,0,0-.07.4,1.42,1.42,0,0,0,0,.42v0c-.08.08-.19.15-.22.25a1.32,1.32,0,0,0-.07.43c0,.12.09.24.14.36l0,.06a1.42,1.42,0,0,0-.1.37,1.25,1.25,0,0,0-.09.37.57.57,0,0,0,.07.23.5.5,0,0,0-.16.15,1.33,1.33,0,0,0-.11.39c0,.13.08.25.11.38v0s0,0,0,0a1.16,1.16,0,0,0-.16.32,1.14,1.14,0,0,0-.13.33,1.32,1.32,0,0,0,0,.18l-.07.06a1.56,1.56,0,0,0-.24.33c0,.12,0,.28,0,.42a1.22,1.22,0,0,0,0,.38,0,0,0,0,0,0,0,.38.38,0,0,0-.17.15,1.25,1.25,0,0,0-.13.38.57.57,0,0,0,0,.28l-.06.06c-.1.12-.07.32-.14.46a1.6,1.6,0,0,0-.11.43,2,2,0,0,1-.09.29h0c-.07,0-.15.08-.22.11a1.8,1.8,0,0,0-.52.24l0,0a1.61,1.61,0,0,0-.45,0c-.18,0-.4-.1-.57,0s-.06,0-.08.06a.65.65,0,0,0-.16-.06,1.72,1.72,0,0,0-.57.06,1.7,1.7,0,0,0-.58.06,1.31,1.31,0,0,0-.17.12A1.42,1.42,0,0,0,32,63a1.5,1.5,0,0,0-.5,0,1.75,1.75,0,0,0-.5.11l-.07.07s0,0,0,0a1.55,1.55,0,0,0,.07-.17,1.35,1.35,0,0,0,.08-.36v0h0a1.42,1.42,0,0,0,.24-.29c.06-.11,0-.26,0-.39a1.1,1.1,0,0,0,0-.37,1.49,1.49,0,0,0-.06-.2c.07-.07.15-.13.19-.23a1.1,1.1,0,0,0,0-.37v-.11l0-.06a1.34,1.34,0,0,0,.29-.33,1.6,1.6,0,0,0,.07-.44c0-.11.06-.22.07-.33l.1-.11c.07-.12,0-.3.07-.44a1.36,1.36,0,0,0,.06-.41,1.14,1.14,0,0,0-.07-.42h0c0-.09,0-.19,0-.27a1.21,1.21,0,0,0,0-.35s0,0,0-.06a.89.89,0,0,0,.23-.2,1.46,1.46,0,0,0,.22-.37,1.63,1.63,0,0,0,.12-.43.66.66,0,0,0-.1-.29.93.93,0,0,0,.2-.28,1.67,1.67,0,0,0,0-.45,1.38,1.38,0,0,0,0-.45.69.69,0,0,0-.11-.2,1.16,1.16,0,0,0,.1-.29c0-.11-.06-.24-.07-.37a.2.2,0,0,0,0-.07,1.2,1.2,0,0,0,.22-.3,1.07,1.07,0,0,0,.22-.31,1.19,1.19,0,0,0,0-.38v0a.75.75,0,0,0,.2-.15c.09-.11.07-.28.13-.41a1.39,1.39,0,0,0,.11-.38,1.34,1.34,0,0,0,0-.26l0,0a1.42,1.42,0,0,0,.2-.38,1.6,1.6,0,0,0,.11-.43.41.41,0,0,0-.08-.23.87.87,0,0,0,.13-.17,1.67,1.67,0,0,0,.18-.43c0-.15-.09-.3-.11-.46a1.67,1.67,0,0,0,0-.2,1,1,0,0,0,.1-.24,1.32,1.32,0,0,0,.06-.36c0-.11-.1-.19-.15-.29l0-.07a1,1,0,0,0,.13-.26l0,0a1.48,1.48,0,0,0,.34-.29,1.85,1.85,0,0,0,.14-.44c0-.15.18-.29.18-.44a1.7,1.7,0,0,0-.07-.41l0-.07c0-.14,0-.29,0-.44s0-.11,0-.15a2.43,2.43,0,0,0,.18-.33c.07-.13.22-.22.24-.35a1.61,1.61,0,0,0,0-.44.55.55,0,0,0-.11-.23.25.25,0,0,1,0-.07,1.61,1.61,0,0,0,.12-.38c0-.14.15-.28.12-.42v0s0,0,0,0a1.24,1.24,0,0,0,.15-.37,1.71,1.71,0,0,0,0-.35.81.81,0,0,0,.19-.22,1.42,1.42,0,0,0,.16-.42A1.48,1.48,0,0,0,36,41.9a.53.53,0,0,0-.11-.23.37.37,0,0,0,0-.06,1.26,1.26,0,0,0,.07-.38.88.88,0,0,1,0-.15c.1-.11.25-.18.31-.31a1.7,1.7,0,0,0,.1-.45c0-.15-.11-.29-.14-.43a1.27,1.27,0,0,0-.11-.31s0,0,0,0,.15-.22.15-.34a.46.46,0,0,0-.07-.2,1.59,1.59,0,0,1,.07-.18,1.07,1.07,0,0,0,.12-.32,2.91,2.91,0,0,0,.11-.32,1.22,1.22,0,0,0,.24-.33c.07-.13.24-.23.27-.38A1.77,1.77,0,0,0,37,37c0-.09,0-.18,0-.27l0,0a1.27,1.27,0,0,0,.09-.37,1.46,1.46,0,0,0,.07-.37,2,2,0,0,0-.07-.31c0-.07,0-.13.06-.19a1.11,1.11,0,0,0,.11-.34,1,1,0,0,0,0-.32,1.45,1.45,0,0,0,.13-.18,1.22,1.22,0,0,0,.16-.33.53.53,0,0,0,0-.2.33.33,0,0,0,.18-.11c.09-.11.09-.29.15-.42a1.52,1.52,0,0,0,.12-.42.65.65,0,0,0-.06-.28c0-.07,0-.14.08-.21a1.3,1.3,0,0,0,.2-.4,1.15,1.15,0,0,0,0-.37.76.76,0,0,0,.15-.21c.06-.12,0-.29,0-.43a1.37,1.37,0,0,0,0-.41s0,0,0,0l0,0a1.77,1.77,0,0,0,.16-.41c0-.14-.09-.28-.11-.42a1.33,1.33,0,0,0-.11-.39,1.28,1.28,0,0,0-.24-.34,1.24,1.24,0,0,0-.3-.29,1.29,1.29,0,0,0-.4-.09l-.29,0-.11-.11a1.52,1.52,0,0,0-.31-.2.2.2,0,0,0-.1,0l0,0a1.33,1.33,0,0,0-.24-.28c-.11-.08-.16-.25-.29-.3a.45.45,0,0,0-.25,0,.87.87,0,0,0-.08-.22,1,1,0,0,0-.24-.28,1.26,1.26,0,0,0-.29-.22h0v0c-.06-.12,0-.29-.13-.37a1.7,1.7,0,0,0-.31-.23h0c0-.09-.09-.16-.13-.24a1.24,1.24,0,0,0-.23-.35,1.14,1.14,0,0,0-.37-.18,2.11,2.11,0,0,1-.24-.16.39.39,0,0,0-.08-.2,1.25,1.25,0,0,0-.24-.18.61.61,0,0,0,0-.21,1.22,1.22,0,0,0-.16-.33,1.16,1.16,0,0,0-.24-.29.3.3,0,0,0-.15,0l0-.08a1.37,1.37,0,0,0-.17-.37,1,1,0,0,0-.3-.2s0-.07,0-.1,0-.33,0-.47-.23-.2-.33-.31l-.06-.06a.93.93,0,0,0,0-.3c0-.11-.15-.2-.22-.3a1,1,0,0,0,.06-.3v0a1.34,1.34,0,0,0-.15-.42,1.19,1.19,0,0,0-.19-.38A.44.44,0,0,0,31.1,21a.62.62,0,0,1,0-.13,1.46,1.46,0,0,0-.12-.41c-.06-.11-.07-.27-.12-.38a.28.28,0,0,0,0-.14,1.3,1.3,0,0,0-.13-.42,1.26,1.26,0,0,0-.15-.39h0a1.4,1.4,0,0,0,.11-.44,1.47,1.47,0,0,0-.11-.44c0-.15,0-.33-.08-.45a2.48,2.48,0,0,0,0-.25,1.32,1.32,0,0,0-.07-.36A.48.48,0,0,0,30.3,17h0a1.06,1.06,0,0,0,.19-.32,1.18,1.18,0,0,0,0-.37,1.36,1.36,0,0,0,0-.37c0-.06-.07-.11-.09-.16a1.86,1.86,0,0,0,0-.31,1.37,1.37,0,0,0,.07-.36l0,0,.07-.09c.07-.11,0-.27.07-.4a1.12,1.12,0,0,0,.06-.37.51.51,0,0,1,0-.15.43.43,0,0,0,.2-.16,1.92,1.92,0,0,0,.07-.44c0-.09,0-.19,0-.28s.07-.28.11-.41a1.07,1.07,0,0,0,.1-.38c0-.11.08-.24.09-.35a2.3,2.3,0,0,0,.15-.24c0-.11,0-.24,0-.37a.54.54,0,0,0,0-.11h0a1.54,1.54,0,0,0,.23-.31,1.51,1.51,0,0,0,.23-.32,1.24,1.24,0,0,0,0-.39,1,1,0,0,1,0-.15A.65.65,0,0,0,32,10a.49.49,0,0,0,0-.15l.11,0c.15,0,.33,0,.46-.07a1.38,1.38,0,0,0,.26-.38A1.27,1.27,0,0,0,33.17,9a.36.36,0,0,0,0-.16l.07,0a1.43,1.43,0,0,0,.24-.38c0-.07.08-.15.11-.22l.07,0A1.42,1.42,0,0,0,34,8a1.25,1.25,0,0,0,.22-.36,1.1,1.1,0,0,0,.18-.38v0a1.53,1.53,0,0,0,.2-.11,1.48,1.48,0,0,0,.29-.27s0-.06,0-.08a.16.16,0,0,0,.11,0c.15,0,.24-.19.36-.28a1.42,1.42,0,0,0,.34-.28,1.61,1.61,0,0,0,.14-.41A.45.45,0,0,0,36,5.67c.12,0,.25,0,.37,0a1.27,1.27,0,0,0,.43,0c.14,0,.24-.17.36-.25a1.36,1.36,0,0,0,.36-.25s0,0,0-.07A.82.82,0,0,0,37.85,5a.91.91,0,0,0,.24-.29.48.48,0,0,0,.29,0,1.33,1.33,0,0,0,.39-.19c.12-.08.15-.27.24-.38a.57.57,0,0,0,.08-.11.42.42,0,0,0,.17,0c.11,0,.19-.14.28-.21l.08,0a.79.79,0,0,0,.31,0,1,1,0,0,0,.33-.15c.11,0,.27,0,.36-.12h0a1,1,0,0,0,.26,0c.11,0,.2-.12.31-.16a1.31,1.31,0,0,0,.27-.16.64.64,0,0,0,.22.07A1,1,0,0,0,42,3.21c.11,0,.25,0,.35,0A.7.7,0,0,0,42.51,3a.63.63,0,0,0,.28,0,1.08,1.08,0,0,0,.32-.14l.11,0a.59.59,0,0,0,.2.15,1.62,1.62,0,0,0,.4,0,1.31,1.31,0,0,0,.4,0,1.09,1.09,0,0,0,.37-.16,1.24,1.24,0,0,0,.33-.25.48.48,0,0,0,0-.13.7.7,0,0,0,.22,0h.07a.71.71,0,0,0,.25.22,1.24,1.24,0,0,0,.42.06c.14,0,.25-.14.38-.18a1.06,1.06,0,0,0,.24-.11h0a1,1,0,0,0,.37.09c.12,0,.23-.09.35-.12h0l0,0a1.15,1.15,0,0,0,.33.16,1,1,0,0,0,.37.1,1.09,1.09,0,0,0,.35-.11.67.67,0,0,0,.18.13,1.21,1.21,0,0,0,.42.07,1.24,1.24,0,0,0,.42,0,.78.78,0,0,0,.28-.15l.07.07a1.13,1.13,0,0,0,.36.14,1.21,1.21,0,0,0,.38,0c.12,0,.21-.15.33-.2a.75.75,0,0,0,.2.11.74.74,0,0,0,.27,0,.93.93,0,0,0,.18.18,1.41,1.41,0,0,0,.43.14c.15,0,.28.18.42.18a1.63,1.63,0,0,0,.45-.1.85.85,0,0,0,.21.1,1,1,0,0,0,.34,0h.07a.61.61,0,0,0,.11.14,1.51,1.51,0,0,0,.33.2l.1,0,0,0a1.34,1.34,0,0,0,.37.26,1.22,1.22,0,0,0,.39.21,1.68,1.68,0,0,0,.45,0c.15,0,.33.07.46,0l.08,0c.06.09.14.17.21.27a1.6,1.6,0,0,0,.29.33,1.3,1.3,0,0,0,.41.18,1.36,1.36,0,0,0,.44.09l.08,0a.68.68,0,0,0,.14.12,1.15,1.15,0,0,0,.34.18c.12,0,.25-.07.37-.07h0a1.1,1.1,0,0,0,.19.15c.1.07.23,0,.34,0a.56.56,0,0,0,.06.29c.07.11.21.15.3.22L59,6a2,2,0,0,0,.22.35,1.64,1.64,0,0,0,.28.34,1.6,1.6,0,0,0,.41.14c.11,0,.2.12.31.16l.11.13a1.21,1.21,0,0,0,.33.14l0,0a1.19,1.19,0,0,0,.12.28c.07.11.21.15.32.24s.13.11.2.17a.39.39,0,0,0,.06.2,1.47,1.47,0,0,0,.3.29.55.55,0,0,0,.29.07.57.57,0,0,0,.07.23,1,1,0,0,0,.2.32l.18.2a.53.53,0,0,0,0,.11,1.49,1.49,0,0,0,.2.39,1.36,1.36,0,0,0,.25.36l0,0a1.21,1.21,0,0,0,0,.24,1.74,1.74,0,0,0,.2.37,1.2,1.2,0,0,0,.28.33.41.41,0,0,0,.17.07.38.38,0,0,1,0,.07l.1.18a1.9,1.9,0,0,0,.07.42,1.85,1.85,0,0,0,.09.43,1.55,1.55,0,0,0,.29.32l.14.18a1.11,1.11,0,0,0,.07.33l0,0a1,1,0,0,1,0,.15,1.65,1.65,0,0,0-.06.45,1.36,1.36,0,0,0,.17.41c.06.15,0,.33.14.44a1.42,1.42,0,0,0,.29.24.33.33,0,0,0,0,.12.67.67,0,0,0-.18.22,1.68,1.68,0,0,0-.08.46,1.7,1.7,0,0,0,0,.46,1.42,1.42,0,0,0,.2.4,1.57,1.57,0,0,1,.09.25h0a1.55,1.55,0,0,0-.08.37,1.45,1.45,0,0,0,.07.37,2,2,0,0,0,.07.2c0,.08,0,.16,0,.25s-.08.28,0,.41a.31.31,0,0,0,0,.09,1.46,1.46,0,0,0-.11.29c0,.13.07.28.07.42a1,1,0,0,0,0,.22l0,.09a1.2,1.2,0,0,0-.2.33,1.29,1.29,0,0,0-.08.38,1.1,1.1,0,0,0,0,.4s-.07,0-.09.07a1.37,1.37,0,0,0-.07.41c0,.09,0,.17,0,.26a1.09,1.09,0,0,0-.24.28,1.3,1.3,0,0,0-.13.39,1.56,1.56,0,0,0,0,.43.72.72,0,0,0,0,.08.35.35,0,0,0-.11.11,1.54,1.54,0,0,0-.07.43,1.66,1.66,0,0,0,0,.34c-.08.07-.19.13-.23.22a.81.81,0,0,0,0,.2,1.43,1.43,0,0,0-.33.26c-.1.1-.08.27-.15.4s0,.08,0,.11a.46.46,0,0,0-.15.06,1.49,1.49,0,0,0-.29.34,1.31,1.31,0,0,0-.25.36,2.41,2.41,0,0,0-.07.26,1.15,1.15,0,0,0-.27.29c-.08.12-.24.2-.29.34a.32.32,0,0,0,0,.09.76.76,0,0,0-.15.11,1.16,1.16,0,0,0-.25.28l0,0a1.42,1.42,0,0,0-.34.24,1.21,1.21,0,0,0-.3.31.78.78,0,0,0-.07.24l-.11,0a1.17,1.17,0,0,0-.25.31c0,.07-.11.15-.15.22a.79.79,0,0,0-.19.09c-.12.07-.29.06-.39.16a1.35,1.35,0,0,0-.15.39l-.07.15-.13.08a1.79,1.79,0,0,0-.12.13,1.07,1.07,0,0,0-.36,0,1.14,1.14,0,0,0-.4.2,1.25,1.25,0,0,0-.41.2,1.45,1.45,0,0,0-.22.4,1.62,1.62,0,0,0-.2.42,1.48,1.48,0,0,0,0,.46,1.46,1.46,0,0,0,.08.46.72.72,0,0,0,.25.24,1.15,1.15,0,0,0,0,.37,1.36,1.36,0,0,0,.08.45,1.14,1.14,0,0,0,.26.3,1.88,1.88,0,0,0,0,.21,1.61,1.61,0,0,0,0,.4c0,.11.14.16.21.24v.09a1.6,1.6,0,0,0-.07.43,1.67,1.67,0,0,0,.18.39c0,.08.08.17.13.24a.37.37,0,0,0,0,.09,1.43,1.43,0,0,0,.07.41,1.68,1.68,0,0,0,.12.39l.07.07a.57.57,0,0,0-.08.27,1.87,1.87,0,0,0,.11.43c0,.11.16.17.25.25a.76.76,0,0,0,0,.11,1.18,1.18,0,0,0,0,.37c0,.12.14.21.19.33a1.77,1.77,0,0,0,.12.21.8.8,0,0,0-.09.3.9.9,0,0,0,.07.29l0,.07c-.06.15,0,.33,0,.48a1.34,1.34,0,0,0,0,.44c0,.15,0,.34,0,.48l0,0c0,.12.1.24.13.37a1.17,1.17,0,0,0,.13.39l.08.11a1,1,0,0,0,0,.22,1.5,1.5,0,0,0,0,.43c0,.13.2.2.28.32a1.07,1.07,0,0,0,.2.23l0,.13a1.24,1.24,0,0,0,0,.34,1.38,1.38,0,0,0,.14.27.46.46,0,0,0-.06.18,1.21,1.21,0,0,0,0,.38,1.15,1.15,0,0,0,.09.37.26.26,0,0,0,.08.08.68.68,0,0,0-.13.29,1.55,1.55,0,0,0,.15.38,1.33,1.33,0,0,0,.15.37.55.55,0,0,0,.16.14.87.87,0,0,0,0,.25,1.22,1.22,0,0,0,0,.38.29.29,0,0,0,.11.14.71.71,0,0,0-.08.15,1.5,1.5,0,0,0-.11.46c0,.15.14.29.18.43a1.51,1.51,0,0,0,.18.41l0,0a1.23,1.23,0,0,0,0,.38,1.36,1.36,0,0,0,.17.37,1.39,1.39,0,0,0,.21.35.6.6,0,0,0,.12.07s0,0,0,.07a1.18,1.18,0,0,0,.11.35c0,.13,0,.29.08.38l.07.07v0a1,1,0,0,0-.07.35,1.36,1.36,0,0,0,0,.37.47.47,0,0,0,.15.2.79.79,0,0,1,0,.2,1.3,1.3,0,0,0,0,.4c0,.14-.07.31,0,.44a.79.79,0,0,0,.23.26c0,.09,0,.18,0,.27a1.23,1.23,0,0,0,0,.42,1.33,1.33,0,0,0,.24.34.49.49,0,0,1,.07.15.59.59,0,0,0-.09.28,1.37,1.37,0,0,0,.16.35.49.49,0,0,1,0,.1c0,.11,0,.24,0,.35a1,1,0,0,0,0,.35,1.23,1.23,0,0,0,.09.18s0,.06,0,.09.06.3.07.46a1.48,1.48,0,0,0,.07.42,1.32,1.32,0,0,1,0,.2,1.16,1.16,0,0,0-.07.34,1.64,1.64,0,0,0,0,.45.47.47,0,0,0,.15.2,1.24,1.24,0,0,1,0,.24,1.33,1.33,0,0,0,0,.44,1.41,1.41,0,0,0,.15.42c.06.09.1.19.15.28a.5.5,0,0,0,0,.22,1.26,1.26,0,0,0,.16.41l.12.24a1.62,1.62,0,0,0-.08.43,1.94,1.94,0,0,0,.09.43,1.44,1.44,0,0,0,.2.41.27.27,0,0,0,.14.09c0,.1.06.19.08.29s0,.19.07.28a.67.67,0,0,0-.07.13,1.52,1.52,0,0,0-.1.42c0,.14.12.26.16.39a1.47,1.47,0,0,0,.16.37l.06.07v.14c0,.15.12.26.16.4a1.39,1.39,0,0,0,.17.35c.07.09.09.2.15.3a.72.72,0,0,0,0,.23.53.53,0,0,0,0,.11Z"/></g></svg>