<svg xmlns="http://www.w3.org/2000/svg" viewBox="0 0 313.21 41.69"><defs><style>.cls-1{fill:#fff;}</style></defs><title>logo_chatbox</title><g id="loco_chatbox"><path class="cls-1" d="M74.45,12.51a5.63,5.63,0,0,0-3.75-1.18,7,7,0,0,0-3.35.74,6,6,0,0,0-2.16,2A8.21,8.21,0,0,0,64,16.84a15.36,15.36,0,0,0-.35,3.29,12.48,12.48,0,0,0,.37,3,8.09,8.09,0,0,0,1.16,2.63,5.88,5.88,0,0,0,2,1.85,6.12,6.12,0,0,0,3,.69,6,6,0,0,0,4.29-1.44,6.52,6.52,0,0,0,1.89-4.05h3.79a10.31,10.31,0,0,1-3.11,6.46A9.92,9.92,0,0,1,70.3,31.6a11.64,11.64,0,0,1-4.55-.83,8.76,8.76,0,0,1-3.31-2.35,10.15,10.15,0,0,1-2-3.64,15.14,15.14,0,0,1-.65-4.64,16.46,16.46,0,0,1,.65-4.73,11,11,0,0,1,2-3.84A9.3,9.3,0,0,1,65.75,9a10.9,10.9,0,0,1,4.66-.93,13.74,13.74,0,0,1,3.6.45,8.72,8.72,0,0,1,3,1.42,7.67,7.67,0,0,1,2.1,2.42,8.87,8.87,0,0,1,1.05,3.46H76.29A5.63,5.63,0,0,0,74.45,12.51Z"/><path class="cls-1" d="M90.71,0V11.9h.09A5,5,0,0,1,92,10.13,6.77,6.77,0,0,1,93.79,9a9.2,9.2,0,0,1,2-.68,10.41,10.41,0,0,1,2.07-.21,9.84,9.84,0,0,1,3.68.6,6.11,6.11,0,0,1,2.4,1.7A6.36,6.36,0,0,1,105.27,13a13.93,13.93,0,0,1,.37,3.34V31.12H102V15.87a4.49,4.49,0,0,0-1.22-3.31,4.54,4.54,0,0,0-3.37-1.25,7.51,7.51,0,0,0-2.94.53,5.49,5.49,0,0,0-2.07,1.48,6.35,6.35,0,0,0-1.24,2.24,9.14,9.14,0,0,0-.42,2.81V31.09H87V0Z"/><path class="cls-1" d="M132.93,31a5.22,5.22,0,0,1-2.66.57,3.19,3.19,0,0,1-2.29-.8,3.48,3.48,0,0,1-.85-2.63,8.88,8.88,0,0,1-3.55,2.63,12.24,12.24,0,0,1-7.28.46,6.76,6.76,0,0,1-2.38-1.08,5.28,5.28,0,0,1-1.58-1.94,6.52,6.52,0,0,1-.59-2.9,6.62,6.62,0,0,1,.65-3.15,5.7,5.7,0,0,1,1.72-2A8,8,0,0,1,116.58,19q1.37-.39,2.81-.65t2.9-.46a15.61,15.61,0,0,0,2.42-.44,4,4,0,0,0,1.66-.83,2,2,0,0,0,.61-1.58,3.71,3.71,0,0,0-.46-2A3.15,3.15,0,0,0,125.34,12a4.8,4.8,0,0,0-1.61-.53,11.65,11.65,0,0,0-1.77-.14,7.83,7.83,0,0,0-3.92.89,3.77,3.77,0,0,0-1.7,3.38h-3.68a8,8,0,0,1,.87-3.53,6.59,6.59,0,0,1,2.1-2.33,8.84,8.84,0,0,1,3-1.29,15.61,15.61,0,0,1,3.59-.39,21.28,21.28,0,0,1,3,.21,8,8,0,0,1,2.72.89,5.29,5.29,0,0,1,2,1.89,6.08,6.08,0,0,1,.74,3.15V25.78a8.56,8.56,0,0,0,.15,1.91q.15.6,1,.6a4.52,4.52,0,0,0,1.13-.17V31Zm-6-11.57a4.73,4.73,0,0,1-1.83.76q-1.14.24-2.38.39T120.2,21a9.29,9.29,0,0,0-2.27.63,4.08,4.08,0,0,0-1.63,1.24,3.43,3.43,0,0,0-.64,2.19,3,3,0,0,0,.37,1.54,3,3,0,0,0,1,1,3.94,3.94,0,0,0,1.37.57,7.69,7.69,0,0,0,1.66.17,8.73,8.73,0,0,0,3.15-.5,6.53,6.53,0,0,0,2.13-1.26,5,5,0,0,0,1.24-1.64,4.13,4.13,0,0,0,.39-1.67V19.48Z"/><path class="cls-1" d="M149.5,8.59v3.24H145v14a4,4,0,0,0,.11,1.05,1.05,1.05,0,0,0,.42.62,1.77,1.77,0,0,0,.85.28,11.35,11.35,0,0,0,1.41.07h1.7V31.1h-2.83a13,13,0,0,1-2.46-.19,3.6,3.6,0,0,1-1.66-.72,3.07,3.07,0,0,1-.94-1.48,8.56,8.56,0,0,1-.3-2.52V11.83h-3.84V8.56h3.81V1.84H145V8.59h4.54Z"/><path class="cls-1" d="M162.66,0V11.64h.09a5.55,5.55,0,0,1,2.88-2.73,10.73,10.73,0,0,1,4.31-.85,10.17,10.17,0,0,1,4.55,1,9.27,9.27,0,0,1,3.23,2.59,11.49,11.49,0,0,1,1.93,3.77,15.39,15.39,0,0,1,.66,4.53,15.84,15.84,0,0,1-.65,4.54,10.59,10.59,0,0,1-1.91,3.73,9,9,0,0,1-3.23,2.51,10.4,10.4,0,0,1-4.51.91,11.25,11.25,0,0,1-1.85-.18,10,10,0,0,1-2-.57,7.78,7.78,0,0,1-1.9-1.05,5.93,5.93,0,0,1-1.5-1.68h-.09v3H159V0h3.7ZM176,16.56a8.25,8.25,0,0,0-1.26-2.68A6.13,6.13,0,0,0,172.54,12a6.55,6.55,0,0,0-3.13-.7A6.11,6.11,0,0,0,164.09,14a8.14,8.14,0,0,0-1.2,2.73,13.21,13.21,0,0,0,0,6.31,7.89,7.89,0,0,0,1.24,2.72,6.31,6.31,0,0,0,2.2,1.9,6.92,6.92,0,0,0,3.27.72,6.31,6.31,0,0,0,3.2-.74,6,6,0,0,0,2.07-2A8.53,8.53,0,0,0,176,22.88a15,15,0,0,0,.35-3.23A11.5,11.5,0,0,0,176,16.56Z"/><path class="cls-1" d="M186.75,15.23a10.52,10.52,0,0,1,2.1-3.74A9.87,9.87,0,0,1,192.3,9a12.67,12.67,0,0,1,9.46,0,10,10,0,0,1,3.42,2.51,10.59,10.59,0,0,1,2.1,3.74,15.14,15.14,0,0,1,.69,4.64,15,15,0,0,1-.69,4.62,10.68,10.68,0,0,1-2.1,3.73,9.78,9.78,0,0,1-3.42,2.48,12.92,12.92,0,0,1-9.46,0,9.7,9.7,0,0,1-3.44-2.48,10.59,10.59,0,0,1-2.1-3.73,14.81,14.81,0,0,1-.69-4.62A15,15,0,0,1,186.75,15.23Zm3.76,8.28A7.61,7.61,0,0,0,192,26.17a6.49,6.49,0,0,0,2.25,1.63A6.69,6.69,0,0,0,202,26.17a7.76,7.76,0,0,0,1.5-2.66,12.37,12.37,0,0,0,0-7.28,7.94,7.94,0,0,0-1.5-2.68,6.51,6.51,0,0,0-2.25-1.66,6.84,6.84,0,0,0-5.44,0A6.38,6.38,0,0,0,192,13.55a7.8,7.8,0,0,0-1.51,2.68,12.48,12.48,0,0,0,0,7.28Z"/><path class="cls-1" d="M212.26,8.59H217l5.41,7.89L228,8.59h4.44L224.71,19l8.71,12.16h-4.73l-6.28-9.33-6.27,9.33h-4.49l8.45-11.86Z"/><path class="cls-1" d="M244.89,26.28v4.84h-4.84V26.28Z"/><path class="cls-1" d="M254.17,4.53V0h3.68V4.53Zm3.68,4.05V31.12h-3.68V8.59Z"/><path class="cls-1" d="M270.62,8.59v3.57h.08A7.81,7.81,0,0,1,278,8.07a9.86,9.86,0,0,1,3.68.6,6.14,6.14,0,0,1,2.4,1.7A6.4,6.4,0,0,1,285.4,13a14.06,14.06,0,0,1,.37,3.34V31.12h-3.68V15.87a4.21,4.21,0,0,0-4.63-4.56,7.49,7.49,0,0,0-2.94.53,5.49,5.49,0,0,0-2.07,1.48,6.31,6.31,0,0,0-1.24,2.24,9.06,9.06,0,0,0-.42,2.81V31.09h-3.68V8.59Z"/><path class="cls-1" d="M307.43,12.51a5.64,5.64,0,0,0-3.75-1.18,7,7,0,0,0-3.35.74,6.08,6.08,0,0,0-2.16,2A8.31,8.31,0,0,0,297,16.84a15.52,15.52,0,0,0-.35,3.29,12.36,12.36,0,0,0,.37,3,8.09,8.09,0,0,0,1.15,2.63,5.87,5.87,0,0,0,2.05,1.85,6.11,6.11,0,0,0,3,.69,6,6,0,0,0,4.29-1.44,6.49,6.49,0,0,0,1.9-4.05h3.78a10.38,10.38,0,0,1-3.12,6.45,9.78,9.78,0,0,1-6.84,2.27,11.63,11.63,0,0,1-4.55-.83,8.76,8.76,0,0,1-3.31-2.35,10.15,10.15,0,0,1-2-3.64,15.29,15.29,0,0,1-.67-4.64,16.46,16.46,0,0,1,.65-4.73,11,11,0,0,1,2-3.84A9.29,9.29,0,0,1,298.68,9,10.93,10.93,0,0,1,303.35,8a13.7,13.7,0,0,1,3.59.45,8.76,8.76,0,0,1,3,1.42,7.69,7.69,0,0,1,2.1,2.42,8.94,8.94,0,0,1,1.05,3.46h-3.84A5.66,5.66,0,0,0,307.43,12.51Z"/><path class="cls-1" d="M24.62,11.73l0-7.82H4.58a1.3,1.3,0,0,0-1.3,1.3V36.91a1.3,1.3,0,0,0,1.3,1.3H36.36a1.3,1.3,0,0,0,1.3-1.3l0-19.87H29.21A5.28,5.28,0,0,1,24.62,11.73Z"/><path class="cls-1" d="M36.93.53H4.23A4.24,4.24,0,0,0,0,4.76v32.7a4.24,4.24,0,0,0,4.23,4.23h32.7a4.24,4.24,0,0,0,4.24-4.23V4.76h0A4.24,4.24,0,0,0,36.93.53Zm2.3,36.93a2.3,2.3,0,0,1-2.3,2.29H4.23a2.29,2.29,0,0,1-2.29-2.29V4.76A2.29,2.29,0,0,1,4.23,2.47H26.15v8.84a4.23,4.23,0,0,0,4.23,4.23h8.85Zm0-23.86H30.38a2.29,2.29,0,0,1-2.29-2.29V2.47h8.84a2.3,2.3,0,0,1,2.3,2.29Z"/></g></svg>